<?xml version="1.0"?>
<svg xmlns:xlink="http://www.w3.org/1999/xlink" height="610.28369" width="1052.375" xmlns="http://www.w3.org/2000/svg">
    <defs>
        <linearGradient id="linearGradient4703">
            <stop id="stop4705" offset="0" stop-color="#e8f6f7" />
            <stop id="stop4707" offset="1" stop-color="#e8f6f7" stop-opacity="0" />
        </linearGradient>
        <linearGradient id="linearGradient4670">
            <stop id="stop4672" offset="0" stop-color="#e5f5f6" />
            <stop id="stop4674" offset="1" stop-color="#e5f5f6" stop-opacity="0" />
        </linearGradient>
        <linearGradient id="linearGradient7835">
            <stop id="stop7837" offset="0" stop-color="#a8dde0" />
            <stop id="stop7839" offset="1" stop-color="#a8dde0" stop-opacity="0" />
        </linearGradient>
        <linearGradient id="linearGradient7841" x1="0.456116" x2="0.460089" y1="0.067008" y2="0.628863" xlink:href="#linearGradient7835" />
        <linearGradient id="linearGradient4676" x1="0.38246" x2="0.499996" y1="0.999998" y2="0.261857" xlink:href="#linearGradient4670" />
        <linearGradient id="linearGradient4709" x1="0.499998" x2="0.499998" y1="1.000006" y2="0.000008" xlink:href="#linearGradient4703" />
    </defs>
    <metadata id="metadata7">image/svg+xml</metadata>
    <g>
        <title>Layer 1</title>
        <g id="layer1">
            <rect fill="url(#linearGradient7841)" height="446" id="rect7833" width="1052.3622" x="0" y="-0.000003" />
            <path d="m260.215302,102.539978a57.27565,43.840618 0 1 1 -114.5513,0a57.27565,43.840618 0 1 1 114.5513,0z" fill="#f6fbfc" fill-rule="evenodd"
                id="path3877" stroke-width="1px" />
            <path d="m352.139191,120.924744a65.053833,39.59798 0 1 1 -130.107651,0a65.053833,39.59798 0 1 1 130.107651,0z" fill="#f6fbfc" fill-rule="evenodd"
                id="path3879" stroke-width="1px" />
            <path d="m438.406189,95.468903a111.015762,46.669048 0 1 1 -222.031525,0a111.015762,46.669048 0 1 1 222.031525,0z" fill="#f6fbfc" fill-rule="evenodd"
                id="path3881" stroke-width="1px" />
            <path d="m316.783844,57.285141a55.154331,31.1127 0 1 1 -110.30864,0a55.154331,31.1127 0 1 1 110.30864,0z" fill="#f6fbfc" fill-rule="evenodd"
                id="path3883" stroke-width="1px" />
            <path d="m384.666077,67.184631a36.06245,26.87006 0 1 1 -72.124908,0a36.06245,26.87006 0 1 1 72.124908,0z" fill="#f6fbfc" fill-rule="evenodd"
                id="path3885" stroke-width="1px" />
            <path
                d="m262.368011,47.390808c-26.198013,0 -47.438019,10.835999 -47.438019,24.220032c0,0.393982 0.018005,0.802979 0.054001,1.192993c-1.026001,-0.044006 -2.048996,-0.072998 -3.090988,-0.072998c-27.205002,0 -49.264008,15.290955 -49.264008,34.151001c0,18.859985 22.059006,34.126953 49.264008,34.126953c8.712997,0 16.901001,-1.556946 24.000992,-4.307983c9.697006,9.171021 27.733994,15.335022 48.378006,15.335022c20.131012,0 37.769989,-5.858032 47.625,-14.653015c46.591003,-2.411987 82.511993,-17.625977 82.511993,-36.026001c0,-13.794983 -20.174988,-25.802002 -49.910004,-31.960999c-5.238983,-6.554993 -15.523987,-11.002991 -27.333984,-11.002991c-8.958008,0 -17.022003,2.570984 -22.684021,6.669983c-2.128998,0.037018 -4.251984,0.105011 -6.342987,0.195007c-5.472992,-10.294983 -23.885986,-17.867004 -45.769989,-17.867004l0,0z"
                fill="url(#linearGradient4676)" fill-rule="evenodd" id="path4659" stroke-width="1px" />
            <path
                d="m880.865479,19.999268c-16.668213,0 -31.18866,8.493805 -38.727722,21.044128c-1.369507,-0.154144 -2.774231,-0.230347 -4.200684,-0.230347c-14.050293,0 -25.697205,7.748169 -27.833008,17.886841c-16.417847,3.149292 -28.104065,11.231384 -28.104065,20.705383c0,10.860718 15.357544,19.881104 35.597534,21.748779c0.647461,11.301941 12.992798,20.312378 28.144653,20.312378c10.116516,0 18.985535,-4.020142 23.95752,-10.054565c8.139587,4.585327 19.647522,7.452881 32.413147,7.452881c15.215576,0 28.64447,-4.066528 36.708679,-10.271423c6.822449,2.658264 14.901978,4.200745 23.564575,4.200745c24.427124,0 44.229309,-12.230713 44.229309,-27.318115c0,-15.087341 -19.802185,-27.318085 -44.229309,-27.318085c-3.280151,0 -6.476624,0.218506 -9.553162,0.636871c-0.151917,-12.825378 -12.894104,-23.18512 -28.605469,-23.18512c-2.707214,0 -5.322815,0.31958 -7.805176,0.894318c-8.058472,-10.015717 -20.987915,-16.504669 -35.556824,-16.504669z"
                fill="#f6fbfc" fill-rule="evenodd" id="path4684" stroke-width="1px" />
            <path
                d="m886.158997,35.91983c-14.052979,0 -26.294983,7.16098 -32.651978,17.741974c-1.153992,-0.129974 -2.338013,-0.194 -3.541016,-0.194c-11.846008,0 -21.664978,6.532013 -23.466003,15.079987c-13.84198,2.655029 -23.69397,9.470032 -23.69397,17.457031c0,9.156982 12.94696,16.762024 30.011963,18.335999c0.546021,9.528992 10.953979,17.125977 23.728027,17.125977c8.529968,0 16.006958,-3.389954 20.198975,-8.47699c6.862,3.866028 16.565002,6.28302 27.327026,6.28302c12.828979,0 24.149963,-3.42804 30.948975,-8.660034c5.752014,2.242004 12.564026,3.542053 19.867004,3.542053c20.594971,0 37.289978,-10.312012 37.289978,-23.032043c0,-12.719971 -16.695007,-23.031982 -37.289978,-23.031982c-2.765015,0 -5.460022,0.184998 -8.054016,0.536987c-0.127991,-10.812988 -10.870972,-19.546997 -24.117004,-19.546997c-2.281982,0 -4.487976,0.269012 -6.579956,0.753998c-6.794006,-8.444 -17.695007,-13.914978 -29.978027,-13.914978l0,0z"
                fill="url(#linearGradient4709)" fill-rule="evenodd" id="path4701" stroke-width="1px" />
        </g>
    </g>
</svg>