<?xml version="1.0"?>
<svg id="svg2" version="1.1" viewBox="0 0 500 500" xmlns="http://www.w3.org/2000/svg">
    <g id="layer1" transform="translate(0 -552.36)">
        <path
            d="m224.99 1013.5c-1.877-7.2794-10.931-23.683-21.584-39.103-14.025-20.302-16.423-25.183-18.123-36.887-1.0016-6.8969 0.0856-15.201 2.6367-20.139 2.1116-4.0871 5.1688-7.095 7.2112-7.095 2.124 0 2.1069-0.51669 0.22151 6.6702-1.8599 7.0899-1.1563 14.767 1.6757 18.283 2.8194 3.5003 7.611 3.3112 10.832-0.42756 3.711-4.3069 4.1326-9.7525 1.5904-20.54-2.5901-10.991-5.472-16.874-11.188-22.842-2.3464-2.4497-4.2662-4.9407-4.2662-5.5355 0-2.2876 4.4215-0.91816 8.8743 2.7485 5.2333 4.3093 5.711 3.9985 2.2611-1.4714-2.207-3.4993-3.2948-8.9629-1.7845-8.9629 0.36078 0 2.0798 1.518 3.8201 3.3734 3.6914 3.9356 7.3912 4.2002 7.9184 0.5665 0.24573-1.6938-1.77-4.2941-8.8602-11.43-7.6757-7.7248-9.4287-10.06-10.708-14.267-2.0448-6.7241-0.60449-7.8568 3.1728-2.4954 5.3341 7.5712 11.965 11.605 15.502 9.4302 2.322-1.4278 2.386-3.7635 0.15437-5.6295-5.3448-4.4691 0.94646-5.6131 7.7379-1.407 7.4652 4.6233 11.769 10.696 12.883 18.175 0.48417 3.253 0.29102 4.6233-0.77328 5.4859-1.1523 0.93392-1.6168 0.78816-2.4743-0.77645-1.376-2.5109-4.3148-4.0074-6.3626-3.24-2.4652 0.92381-1.44 9.2259 1.9125 15.487 1.4877 2.7785 3.7052 8.8892 4.9278 13.579l2.2229 8.5276 0.0763-9.5876c0.1174-14.755 2.905-26.468 7.5257-31.622 2.0973-2.3391 0.87605-4.7424-5.5878-10.996-7.4741-7.2314-15.048-11.134-24.855-12.805-4.2521-0.72491-10.546-2.6301-13.987-4.2338-10.923-5.0908-15.686-12.447-18.088-27.938-0.64326-4.1484-1.7597-8.6582-2.481-10.022-1.4355-2.7139-9.629-8.3911-16.219-11.238-7.2412-3.128-21.477-6.3926-32.749-7.5103-12.932-1.2822-37.024 0.57538-49.027 3.7801-11.218 2.9953-13.86 3.3487-13.365 1.7882 0.9424-2.9706 17.489-9.1374 32.76-12.209 8.8129-1.7728 12.306-1.9718 27.945-1.5918 18.645 0.45304 24.21 1.3128 39.127 6.045 20.962 6.6497 29.466 13.418 50.575 40.25 14.232 18.091 27.344 28.923 35.011 28.923 3.864 0 13.717-6.3526 21.032-13.561 3.7532-3.6982 12.167-13.494 18.697-21.769 14.375-18.215 23.549-25.759 37.94-31.199 16.987-6.421 26.085-8.141 45.908-8.6791 15.875-0.43094 19.061-0.25098 28.5 1.6099 10.137 1.9986 29.283 8.2792 32.034 10.509 0.71341 0.5782 1.2971 1.4794 1.2971 2.0027 0 1.1172-3.3721 0.59059-13.495-2.1076-3.9685-1.0578-14.176-2.5968-22.684-3.42-12.72-1.2308-17.361-1.3046-26.115-0.4152-17.798 1.8081-31.793 5.9112-41.882 12.279-7.3207 4.6207-8.5729 6.5078-9.765 14.716-1.5401 10.605-4.5887 18.947-8.4482 23.119-4.4748 4.8371-14.009 9.2215-23.614 10.859-4.2126 0.71819-10.08 2.4632-13.038 3.8777-5.5756 2.6661-18.722 14.315-18.722 16.589 0 0.71126 1.2718 3.5975 2.8263 6.4139 3.4228 6.2015 5.8326 17.93 5.968 29.048l0.0993 8.1511 1.8052-7.285c0.99285-4.0068 3.131-9.85 4.7515-12.985 3.4455-6.6656 4.7169-13.451 2.9171-15.569-1.703-2.004-2.5123-1.8155-5.9399 1.3833-1.657 1.5464-3.4468 2.5498-3.9772 2.2296-0.56585-0.34153-0.73677-2.7357-0.41361-5.7935 0.90638-8.5762 7.5432-16.465 17.133-20.365 4.983-2.0265 6.5899-0.67781 3.7157 3.1187-1.757 2.3208-2.0281 3.3383-1.2237 4.5932 2.7821 4.3398 9.5798 1.3379 15.98-7.0571 4.0731-5.3424 4.1884-5.4143 4.4942-2.8064 0.54647 4.6609-4.0668 12.039-12.442 19.899-6.4202 6.0255-7.7371 7.7503-7.4919 9.8134 0.45722 3.8475 3.3334 3.7032 7.6177-0.38227 3.2558-3.1047 3.808-3.3397 4.3867-1.8669 0.40381 1.0277-0.33715 3.6745-1.8996 6.7855-1.4089 2.8053-2.5616 5.3396-2.5616 5.6316 0 0.29206 2.0176-1.2033 4.4835-3.323 4.3604-3.7482 7.3697-4.7898 8.5321-2.9531 0.31362 0.49555-1.5966 3.2376-4.245 6.0935s-5.5584 6.5899-6.4667 8.2978c-2.1794 4.0978-6.1245 19.18-6.149 23.508-0.0507 8.954 3.253 14.034 9.1268 14.034 2.8359 0 3.7876-0.53976 5.4064-3.0663 1.6891-2.6361 1.9032-4.1914 1.5259-11.086-0.24134-4.4107-0.74779-9.187-1.1254-10.614-0.58473-2.2095-0.39045-2.5945 1.309-2.5945 5.426 0 10.378 12.948 9.543 24.953-0.86764 12.476-4.414 20.071-18.746 40.146-8.3651 11.718-17.307 27.572-20.072 35.588-1.2454 3.611-2.7652 6.3966-3.4902 6.3966-2.9836 0-3.0961-8.751-0.29703-23.115l0.64346-3.3021-2.7908 2.4699c-1.5349 1.3585-5.2158 3.96-8.1797 5.7811-3.3774 2.0753-5.7726 4.3229-6.4169 6.0214-0.56541 1.4905-1.6346 4.4083-2.3759 6.4839-0.90337 2.5293-2.0012 3.8667-3.3287 4.0553-2.6156 0.3715-3.6715-1.0709-5.6057-7.6576-1.4324-4.8781-2.1031-5.771-6.0228-8.0195-2.426-1.3916-6.1656-4.0162-8.3102-5.8323l-3.8993-3.3021 0.62363 3.3021c1.1352 6.0111 1.8675 18.634 1.2259 21.13-0.99044 3.8537-3.1406 2.9335-4.3804-1.8749zm30.723-21.444c4.5145-6.7667 4.7753-8.1359 2.0145-10.576-4.291-3.7923-5.9487-7.7802-5.9912-14.413-0.026-4.0498 0.51873-7.4346 1.4923-9.273 2.1062-3.9774 7.6253-8.5213 11.31-9.3116 4.3898-0.94157 11.028 0.25442 13.974 2.5178 3.3295 2.5576 3.7866 1.882 1.7628-2.6051-2.1343-4.732-2.1335-18.02 0.002-27.532 0.8478-3.7768 3.3087-10.315 5.4686-14.529 2.1599-4.2142 3.7549-7.8304 3.5444-8.0359-0.21045-0.20551-3.0417 2.5034-6.2916 6.0199-9 9.7382-11.332 18.402-8.2697 30.724 0.49946 2.0098 0.29721 2.5945-0.89738 2.5945-2.334 0-5.3493-6.6984-6.2476-13.879-0.68341-5.4624-0.90462-5.9889-1.5022-3.5752-1.8989 7.669-5.7832 18.457-7.001 19.444-2.3118 1.8736-2.6535 0.1829-1.3385-6.6228 1.6529-8.5548 0.8021-34.104-1.4009-42.069-1.7242-6.2333-4.1401-9.3555-6.5426-8.4551-5.7917 2.1704-9.397 36.605-5.4396 51.953 1.4885 5.7727-0.15596 7.5832-2.894 3.1864-1.7297-2.7776-5.7737-15.472-6.0262-18.916-0.0545-0.74302-0.67711 2.0118-1.3836 6.1219-1.2354 7.187-3.4776 11.753-6.2075 12.642-1.0299 0.33524-1.1234-0.4204-0.45988-3.7144 2.6058-12.936-1.6451-24.321-12.275-32.878l-3.4504-2.7775 4.243 8.2125c6.8381 13.235 9.4172 31.913 5.7427 41.588-0.86232 2.2706-1.5678 4.2753-1.5678 4.4549 0 0.17961 2.0211-0.72289 4.4914-2.0056 12.771-6.6315 25.458 1.6218 25.458 16.562 0 6.448-0.75436 8.2914-5.5248 13.5-1.8584 2.0292-3.0802 4.2128-2.7819 4.972 0.97377 2.4781 8.366 12.638 9.1953 12.638 0.44916 0 2.6067-2.6831 4.7946-5.9625zm-22.843-12.881c3.1817-2.4441 5.5664-7.4859 5.5664-11.769 0-5.895-5.6613-9.7218-10.58-7.1513-2.8456 1.4872-3.226 5.267-1.0202 10.137 2.4511 5.4112 1.3346 7.2564-2.6477 4.3755-3.9592-2.8643-7.0069-7.7614-7.0069-11.259 0-2.4934-0.42367-3.1558-2.1738-3.3985-1.9585-0.27163-2.1738-0.82425-2.1738-5.581 0-5.3616-1.4495-8.4008-4.0066-8.4008-0.74512 0-1.7725 1.073-2.2831 2.3845-1.3474 3.461 0.68994 8.3911 7.486 18.115 3.1816 4.5522 6.5076 9.6564 7.3911 11.343 1.3907 2.6546 2.1044 3.0663 5.3157 3.0663 2.2294 0 4.6761-0.74259 6.1324-1.8613zm47.673-1.205c0.86886-1.6864 4.3977-7.1935 7.8419-12.238 6.5521-9.5964 8.4856-15.365 6.0934-18.18-1.5331-1.804-2.3911-1.7923-4.2862 0.0584-1.0387 1.0144-1.5182 3.249-1.5182 7.076 0 4.833-0.24537 5.5934-1.805 5.5934-1.3872 0-1.9299 0.90925-2.3445 3.9281-0.58807 4.2815-2.7396 7.6407-6.7815 10.588-2.0305 1.4805-2.8551 1.6461-3.7659 0.75664-0.91084-0.88949-0.8045-1.7368 0.48568-3.8697 2.3954-3.96 2.1632-9.059-0.49532-10.877-3.026-2.0698-5.2993-1.8303-8.0409 0.84709-6.3457 6.197-0.00016 19.384 9.3274 19.384 3.2168 0 3.9191-0.40717 5.2891-3.0663zm-66.26-140.52c0-2.807-4.3825-7.2539-7.7014-7.8145-8.6462-1.4606-11.621-4.5576-11.621-12.099 0-4.2985-2.6588-8.1081-4.7697-6.8341-1.8924 1.1422-1.139 10.14 1.2726 15.198 2.278 4.7776 9.2777 10.927 13.641 11.984 3.8866 0.94158 9.178 0.69138 9.178-0.43396zm83.428-0.17622c8.0188-3.272 15.102-13.069 15.091-20.874-0.008-5.1486-1.0631-6.6405-3.7173-5.2533-1.1303 0.59074-2.0936 1.3776-2.1406 1.7485-0.047 0.37092-0.15762 2.9398-0.24576 5.7087-0.13825 4.3436-0.57271 5.3942-3.1667 7.6576-1.8792 1.6397-4.6379 2.8622-7.3576 3.2605-3.5388 0.51824-4.817 1.2766-6.8464 4.062-1.3724 1.8836-2.2728 3.7764-2.0008 4.2062 0.7725 1.2206 6.8712 0.91769 10.384-0.51581zm-116 39.585c-19.929-6.3851-34.514-17.617-44.629-34.37-3.3556-5.5577-5.2765-11.078-4.5225-12.997 0.49447-1.2584 1.0074-1.1899 3.825 0.51065 4.1949 2.5318 6.6514 2.4799 9.8513-0.20806 2.0664-1.7357 2.5744-2.9689 2.5296-6.1399-0.0823-5.8273-3.0664-9.2549-11.437-13.137-5.7656-2.6739-8.5981-3.3818-15.123-3.7793-9.2391-0.5629-20.841 1.374-30 5.0083-3.1793 1.2616-6.6565 2.2938-7.727 2.2938-5.7653 0 15.707-14.183 26.915-17.778 14.414-4.6235 31.062-3.2201 41.738 3.5184 7.6461 4.8261 16.287 14.336 20.206 22.238 3.6732 7.4072 3.2105 9.548-1.479 6.8427-4.2071-2.427-9.5388-2.1419-10.808 0.57793-1.6461 3.5281 1.3071 11.462 7.0858 19.037 6.2622 8.2084 18.067 19.656 25.254 24.49 5.5514 3.7338 6.6219 5.5264 3.9076 6.5436-2.7568 1.0331-5.5877 0.55138-15.587-2.6523zm122.66 2.6366c-2.0206-0.85729-1.3561-3.0503 1.4492-4.7827 10.299-6.36 27.106-23.526 32.086-32.771 3.0687-5.697 3.8352-11.55 1.7761-13.56-1.602-1.5644-6.7772-1.4196-9.0417 0.25304-2.3105 1.7066-5.2641 1.8566-5.2355 0.26587 0.0452-2.5143 4.1823-9.9471 8.9743-16.124 6.3474-8.1814 15.555-15.013 23.293-17.283 8.2659-2.4246 22.111-2.2277 31.019 0.44132 11.205 3.3571 31.313 15.588 29.159 17.735-0.42015 0.41891-4.7676-0.57619-9.6611-2.2113-17.291-5.7777-28.464-6.5065-39.811-2.5968-7.8073 2.6899-10.737 4.5928-13.769 8.9427-3.0182 4.3307-2.8074 8.0272 0.65027 11.404 3.3272 3.2492 5.9257 3.4618 10.269 0.84012 3.8922-2.3491 4.8765-1.2688 3.2683 3.5872-1.9953 6.0253-4.8226 10.822-10.45 17.731-7.7629 9.5297-14.768 15.066-26.2 20.706-10.186 5.0253-24.444 8.8354-27.776 7.4221zm-55.817-45.81c-1.1221-7.9677-6.8498-24.317-10.784-30.783-1.9909-3.272-8.3623-11.126-14.159-17.454-14.636-15.978-19.489-22.97-22.509-32.427-1.998-6.2582-2.4203-9.219-2.1262-14.907 0.40669-7.865 0.093-8.1965-5.3636-5.6678-4.5853 2.1249-6.3833 5.8095-6.3833 13.081 0 7.0024 2.3626 14.06 8.669 25.898 4.9921 9.3706 8.7995 13.902 10.991 13.081 2.5857-0.96897 3.009-3.4715 1.1557-6.8323-1.6379-2.9702-1.4293-5.1462 0.49337-5.1462 1.744 0 8.4581 6.6802 10.216 10.164 1.2697 2.5166 1.9279 6.5996 2.3158 14.366 0.48278 9.666 0.85348 11.416 3.3975 16.035 1.5706 2.8521 6.2249 8.6288 10.343 12.837 4.118 4.2084 7.4874 8.1372 7.4874 8.7306 0 4.7809-14.88-5.1443-28.634-19.099-11.542-11.711-17.038-20.328-21.542-33.779-1.1625-3.4717-3.7915-8.8473-5.8422-11.946-7.3258-11.069-19.832-14.647-23.829-6.8183-2.0738 4.0622 1.8983 10.303 8.1985 12.88 3.4558 1.4138 3.6956 3.5203 0.45416 3.9895-2.2683 0.32834-15.316-4.7746-27.631-10.807-24.709-12.102-54.776-19.186-81.471-19.193-14.02-0.004-36.591 1.983-47.705 4.1994-6.6684 1.3298-7.7289 1.2004-7.7289-0.94333 0-3.5219 16.845-10.285 32.587-13.084 19.834-3.5259 56.177-3.3885 71.96 0.27212 4.6038 1.0678 14.592 4.1844 22.196 6.9259 12.149 4.3799 14.705 4.9837 21.072 4.9781 8.8709-0.008 12.663-1.9033 15.58-7.7876 3.7299-7.5243 0.51473-14.392-8.8851-18.979-6.8632-3.3492-11.295-3.7226-14.462-1.2184-3.1105 2.4597-1.924 6.0467 3.1991 9.6709 2.2469 1.5895 4.0853 3.39 4.0853 4.001 0 1.6391-6.7833 1.9236-14.492 0.60786-8.2061-1.4007-25.041-6.9978-28.699-9.5416-3.8324-2.665-13.514-6.7944-22.988-9.805-7.2955-2.3184-9.6674-2.612-21.254-2.6315-14.525-0.0243-26.873 1.7025-39.619 5.5406-15.541 4.6799-18.701 3.9848-9.1137-2.0044 11.358-7.0954 24.96-11.865 40.223-14.104 20.925-3.0693 36.282-0.96992 52.527 7.1807 5.0863 2.552 10.219 4.6399 11.405 4.6399 7.768 0 4.8921-11.574-3.1894-12.836-5.5564-0.86768-6.7159-1.8267-4.6492-3.8454 2.3614-2.3066 12.858-2.7285 21.846-0.87816 8.033 1.6537 20.682 7.303 27.181 12.139 7.1018 5.285 8.1843 5.6555 10.704 3.663 2.0515-1.6223 2.1138-1.9903 0.99519-5.883l-1.1932-4.1524-6.4606-0.11936c-10.658-0.19692-24.592-5.676-46.628-18.336-12.43-7.1411-17.116-9.2992-34.706-15.982-13.704-5.2067-20.991-6.8717-28.162-6.4344-5.5989 0.3414-7.5075-1.4132-3.2548-2.9922 4.3867-1.6287 18.111-2.2143 24.888-1.0618 7.9081 1.3449 23.599 7.4869 41.502 16.245 22.363 10.94 33.019 15.061 40.536 15.677 3.6592 0.29958 6.6089 0.16421 6.6076-0.30327-0.005-1.5012-6.8542-12.004-11.754-18.022-6.5977-8.1039-10.777-11.071-22.924-16.272-5.778-2.4745-12.027-5.6327-13.887-7.0182-4.0074-2.985-8.4328-8.9397-8.4328-11.347 0-1.8212 0.68517-1.7655 6.5458 0.53158 3.8498 1.5089 6.4967 0.27744 6.4967-3.0226 0-3.0578-5.0647-6.2556-20.187-12.746-26.139-11.218-47.689-16.903-61.792-16.301-5.3142 0.22682-7.8083-0.0163-8.0784-0.78733-1.6915-4.8286 30.863-6.299 57.21-2.5839 12.86 1.8133 34.257 7.3072 41.691 10.705 14.063 6.4264 25.414 16.296 30.771 26.754 5.2973 10.34 4.1778 14.269-2.2305 7.8268-3.4253-3.4432-8.5322-6.2057-11.472-6.2057-4.5251 0-7.2758 4.4194-5.5246 8.876 0.65686 1.6716 8.6198 7.9054 20.384 15.958 9.3924 6.4287 13.382 10.752 18.225 19.752 3.0476 5.6637 3.7632 6.4458 4.7238 5.1629 0.62265-0.83158 4.4996-2.8183 8.6153-4.4149 4.1158-1.5966 9.6167-3.9588 12.224-5.2492 2.6076-1.2904 5.625-2.3462 6.7054-2.3462 2.3619 0 2.5176-2.1339 0.65421-8.963-1.6843-6.1726-4.0576-10.559-6.3652-11.765-3.0706-1.6048-7.6186-1.1313-9.8245 1.0228-1.7376 1.6969-1.9487 2.6816-1.4159 6.6043 0.79421 5.8467-0.44936 6.0002-6.4965 0.8021-7.9889-6.8673-11.675-18.522-8.4554-26.735 0.58448-1.491 0.78749-4.2507 0.45116-6.1326-1.0021-5.6069-8.692-20.625-12.132-23.693-2.3651-2.1096-2.8869-3.0939-2.0655-3.8961 3.2573-3.181 12.269 4.3781 18.352 15.394 8.1729 14.801 13.939 20.567 20.565 20.567 5.3977 0 10.273-7.9345 12.753-20.756 0.97704-5.0507 0.51231-23.315-0.81342-31.968-0.50606-3.303-0.36144-4.0523 0.7185-3.7225 3.5721 1.0908 7.3182 13.146 8.5885 27.637 1.0194 11.63 0.0205 18.465-4.5014 30.797-2.1899 5.9725-2.5494 8.4422-2.5014 17.18 0.0309 5.6128 0.29912 10.442 0.5961 10.732 0.29698 0.29002 1.7534-0.87999 3.2365-2.6 12.015-13.935 17.529-27.122 19.633-46.957 0.82949-7.8181 1.9557-10.535 4.367-10.535 2.6325 0 4.1552 2.9465 4.7493 9.1902 1.6651 17.5 6.7671 31.503 15.725 43.159 3.3955 4.4182 6.5794 8.0332 7.0753 8.0332 0.5036 0 0.90164-4.592 0.90164-10.402 0-8.0869-0.43957-11.604-1.9752-15.803-7.1648-19.593-7.4692-34.244-1.0918-52.566 1.8688-5.3688 3.1404-7.6357 4.4182-7.876 1.5517-0.29182 1.7109 0.0896 1.1777 2.8212-1.3476 6.9046-1.796 29.625-0.68717 34.826 1.4494 6.7983 6.1602 16.492 8.6455 17.791 7.2056 3.7659 13.876-1.5909 24.146-19.391 5.1627-8.9481 10.852-14.954 15.168-16.012 4.2814-1.0494 4.6383 0.88237 0.86418 4.6774-1.9147 1.9253-5.2606 7.2014-7.4352 11.725-4.2223 8.7821-4.5736 11.434-3.1239 23.584 0.65257 5.469 0.47105 6.3933-2.3577 12.005-1.9316 3.8317-4.6017 7.3093-7.222 9.4061-5.6281 4.5038-6.7521 4.3624-5.967-0.75021 0.87114-5.673-1.8522-9.1315-7.1904-9.1315-3.0948 0-4.157 0.53248-6.1166 3.0663-2.6779 3.4626-5.4558 11.791-5.4558 16.358 0 2.5808 0.29406 2.9675 1.9374 2.5478 1.0656-0.27212 2.4785-0.0626 3.1398 0.46559 0.66137 0.52819 5.9847 2.9375 11.83 5.354 5.845 2.4165 11.166 5.0815 11.825 5.9223 1.4355 1.8322 1.1228 2.1556 5.1611-5.3364 4.0531-7.5194 10.496-14.491 17.914-19.386 9.5011-6.2686 19.127-13.775 20.549-16.025 1.813-2.867 0.66755-6.9076-2.3371-8.2446-3.4873-1.5517-8.9284 0.33495-14.312 4.9625-5.3985 4.6405-6.7991 4.246-5.052-1.4231 3.1466-10.21 11.22-19.594 23.492-27.304 9.3807-5.8936 14.308-7.7713 31.144-11.869 20.069-4.8848 30.075-6.0625 50.735-5.9716 18.412 0.081 27.051 1.3743 27.051 4.0495 0 1.1657-1.3624 1.3608-7.7289 1.1066-4.2509-0.16971-10.674 0.15851-14.274 0.72936-17.689 2.8054-61.144 19.312-66.716 25.342-0.97258 1.0527-1.6247 2.9042-1.4492 4.1146 0.40147 2.768 4.7156 3.4762 8.0765 1.3257 4.5038-2.8818 6.5862-1.419 4.0433 2.8404-4.0668 6.8121-9.0276 10.367-22.428 16.073-11.66 4.9646-16.769 8.893-24.311 18.69-4.0004 5.197-9.0202 13.694-9.0202 15.268 0 0.35197 2.9346 0.38738 6.5212 0.0786 7.3573-0.63319 19.472-5.3586 42.267-16.486 7.439-3.6314 18.743-8.659 25.119-11.172l11.593-4.5698 12.076-0.008c8.8296-0.006 12.856 0.37394 14.975 1.4109 4.1293 2.0208 2.7639 3.3316-3.0906 2.9671-7.1057-0.44242-14.485 1.2651-27.825 6.4388-17.539 6.8022-21.355 8.5952-37.386 17.569-20.562 11.509-39.008 18.271-46.574 17.072-3.1654-0.50163-3.4355-0.33575-4.4786 2.7508-0.61054 1.8066-0.84307 4.3235-0.51674 5.5932 0.91164 3.5471 4.6264 2.934 11.579-1.9113 12.376-8.6243 26.887-13.653 39.504-13.69 5.367-0.0157 11.304 1.9175 11.304 3.6808 0 1.0513-2.4451 1.9636-5.2623 1.9636-2.8135 0-7.1709 3.3269-8.361 6.3838-1.241 3.1876 1.1642 6.8248 4.5131 6.8248 1.3412 0 5.7116-1.7543 9.712-3.8984 15.89-8.5167 32.057-10.935 53.357-7.9825 12.937 1.7935 22.6 4.7882 33.998 10.537 10.592 5.3422 12.007 6.3741 11.281 8.2234-0.51325 1.3062-1.6255 1.1466-8.9385-1.2825-9.8567-3.274-26.112-6.2791-38.47-7.1119-15.917-1.0727-30.513 2.4973-48.448 11.85-9.2938 4.8464-20.581 8.7644-29.885 10.373-11.628 2.0109-18.134 0.6739-13.211-2.7148 7.4852-5.1522 9.1125-8.2535 5.9508-11.341-2.4021-2.3458-6.321-2.4706-11.865-0.3777-11.655 4.4002-16.142 12.629-11.504 21.1 2.4408 4.4578 6.7779 6.7219 13.954 7.2845 4.8933 0.38359 7.3432 0.002 13.24-2.0649 32.795-11.493 39.766-12.896 64.241-12.931 17.903-0.0255 24.984 0.45434 38.639 2.6187 18.579 2.9448 36.531 10.968 32.638 14.588-0.41594 0.38672-3.9904 0.0976-7.9433-0.64236-12.72-2.3813-32.723-4.1502-46.931-4.1502-24.871 0-53.094 6.2403-77.043 17.035-25.828 11.642-29.816 13.27-31.799 12.985-3.4976-0.50269-3.0698-2.4514 0.98124-4.4696 9.2184-4.5926 10.747-13.48 2.7617-16.054-8.8027-2.8371-19.049 6.0244-24.821 21.466-5.7086 15.272-9.4618 21.579-18.542 31.156-11.143 11.753-15.226 15.392-22.423 19.984-5.8293 3.7196-9.2797 4.7256-9.2797 2.7057 0-0.57621 3.2864-4.4592 7.3031-8.629 4.0167-4.1697 8.6598-10.173 10.318-13.34 2.6928-5.1437 3.0758-6.9179 3.5852-16.609 0.41121-7.8226 1.0565-11.73 2.3126-14.004 0.95825-1.7347 1.56-3.3319 1.3373-3.5494-0.77388-0.75574-16.168 17.372-20.046 23.604-4.2889 6.8943-9.183 20.127-11 29.743-0.80988 4.2852-1.6412 6.2747-2.7055 6.4749-1.1824 0.22237-1.6983-0.86014-2.2388-4.698zm12.165-44.175c27.968-25.396 28.29-25.89 28.751-44.107 0.2338-9.238 0.0149-12.501-0.83824-12.501-2.2585 0-8.4589 7.1574-9.6973 11.194-1.0131 3.3022-1.0171 4.6345-0.0211 7.0527 2.4812 6.0239 2.4621 6.2835-0.46112 6.2835-4.3195 0-12.438-8.7779-14.488-15.665-2.1602-7.2566-1.4544-16.089 1.8649-23.337 2.7847-6.0808 4.8122-6.6604 5.2293-1.4948 0.50405 6.2417 1.1819 7.5687 4.5731 8.9525 3.8189 1.5582 6.1696 1.6885 8.1702 0.45271 1.2208-0.75407 1.1952-1.104-0.18988-2.5986-3.4781-3.7532-10.361-22.135-10.387-27.74-0.01-2.0434-0.38227-2.3948-2.1852-2.0597-1.6656 0.30958-3.5775-0.98914-8.179-5.5558-3.3029-3.2779-7.327-7.7642-8.9426-9.9696s-3.0798-4.0097-3.2538-4.0097c-0.17404 0-1.9721 2.3476-3.9957 5.217-4.798 6.8032-13.549 14.596-16.391 14.596-1.9827 0-2.2542 0.54941-2.7128 5.4884-0.52732 5.6789-6.1917 20.009-9.5643 24.196-1.7916 2.2242-1.7885 2.2663 0.21328 2.8867 3.3717 1.045 8.4101-0.39896 10.516-3.0141 1.3146-1.632 1.9741-3.8498 1.9741-6.6384 0-6.0849 2.6013-5.129 5.6742 2.0852 3.4883 8.1896 3.3709 19.052-0.2847 26.348-2.9316 5.8515-9.4211 11.86-12.809 11.86-2.6333 0-2.657-0.17117-0.75933-5.4918 1.1011-3.0872 1.2201-4.9189 0.49033-7.5477-0.96275-3.4682-7.9816-11.49-10.054-11.491-0.7667-0.00031-1.0526 3.5129-0.95081 11.681 0.12007 9.6324 0.50392 12.473 2.1879 16.191 3.2154 7.0986 8.5386 13.204 18.213 20.89 4.9245 3.9121 10.964 9.4111 13.421 12.22 2.4574 2.809 4.591 4.9907 4.7414 4.8483 0.15041-0.14237 4.7152-4.2922 10.144-9.2218zm-11.185 3.0518c-0.53634-0.38124-2.1296-2.4338-3.5407-4.5614-1.4111-2.1275-5.1024-5.9254-8.2029-8.4398-8.7463-7.0928-13.849-12.025-13.849-13.386 0-0.68327 2.551-3.6799 5.6689-6.6593 5.5087-5.2639 9.5664-11.771 13.651-21.892 1.3325-3.3014 2.3684-9.9999 3.4651-22.406 1.5145-17.133 2.3105-20.999 4.3236-20.999 1.7552 0 2.5577 4.1306 3.7579 19.341 0.65508 8.3025 1.6074 17.006 2.1162 19.341 1.7292 7.9356 8.2315 19.438 14.878 26.318 3.4326 3.5534 6.241 6.8956 6.241 7.4271s-4.3949 4.6828-9.7665 9.2251-11.281 10.318-13.133 12.835c-3.4643 4.7091-3.9437 5.0385-5.6097 3.8543zm49.288-10.225c2.8824-3.0373 11.561-19.394 14.072-26.523 2.1148-6.0027 2.4143-14.712 0.62473-18.166-1.5653-3.0209-7.0844-6.6326-10.135-6.6326-2.03 0-2.2067 0.21645-1.1714 1.4348 0.86788 1.0212 1.0663 3.6727 0.68854 9.1988-0.71507 10.459-4.1731 19.065-11.362 28.276l-5.7 7.3035 3.8698-2.5009c4.7823-3.0906 6.6953-2.0534 4.357 2.3624-1.8328 3.4612-1.9231 5.0561-0.37205 6.5708 1.6802 1.6408 2.5205 1.4239 5.1281-1.3238zm-94.203-65.639c0-0.54849 1.4654-2.9647 3.2564-5.3693 3.9024-5.2394 6.7508-10.505 5.6829-10.505-0.42429 0-4.1877 1.2847-8.3632 2.8548s-8.4016 2.6038-9.3915 2.297c-2.1342-0.66149-1.6796 1.1864 1.4017 5.6981 4.2282 6.191 7.4136 8.3496 7.4136 5.0239zm98.019-2.4294c1.8476-2.4648 3.7809-5.636 4.2963-7.047 0.83142-2.2763 0.75328-2.4545-0.69301-1.5805-1.2307 0.74374-3.5993 0.27425-9.6664-1.9159-4.42-1.5956-8.224-2.901-8.4535-2.901-1.1008 0-0.0301 2.0778 4.4008 8.5403 2.6498 3.8648 4.8236 7.5576 4.8306 8.2063 0.0249 2.3266 1.9833 1.103 5.2853-3.3021z"
            id="path3008" />
    </g>
</svg>
