<?xml version="1.0" encoding="utf-8"?><!-- Generator: Adobe Illustrator 22.1.0, SVG Export Plug-In . SVG Version: 6.00 Build 0)  -->
<svg style="enable-background:new 0 0 300 112.5;" id="svg6096" version="1.1" viewBox="0 0 300 112.5" x="0px" xmlns="http://www.w3.org/2000/svg" y="0px"
    xml:space="preserve">
<style type="text/css">
	.st0{fill:#D3D2D2;}
	.st1{fill:url(#path3558_1_);}
	.st2{fill:url(#path3580_1_);}
	.st3{fill:url(#path3602_1_);}
	.st4{fill:url(#path3624_1_);}
	.st5{fill:url(#path3646_1_);}
	.st6{fill:url(#path3668_1_);}
	.st7{fill:url(#path3690_1_);}
	.st8{fill:url(#path3742_1_);}
	.st9{fill:url(#path3764_1_);}
	.st10{fill:url(#path3786_1_);}
	.st11{fill:url(#path3808_1_);}
	.st12{fill:url(#path3830_1_);}
	.st13{fill:url(#path3852_1_);}
	.st14{fill:url(#path3874_1_);}
	.st15{fill:url(#path3896_1_);}
	.st16{fill:url(#path3918_1_);}
	.st17{fill:url(#path3940_1_);}
	.st18{fill:url(#path3962_1_);}
	.st19{fill:url(#path3984_1_);}
	.st20{fill:url(#path4006_1_);}
	.st21{fill:url(#path4028_1_);}
	.st22{fill:url(#path4050_1_);}
	.st23{fill:url(#path4072_1_);}
	.st24{fill:url(#path4094_1_);}
	.st25{fill:#4F4C4D;}
	.st26{fill:url(#path4130_1_);}
	.st27{fill:url(#path4154_1_);}
	.st28{fill:url(#path4180_1_);}
	.st29{fill:url(#path4206_1_);}
	.st30{fill:url(#path4232_1_);}
</style>
    <path class="st0" d="M299.1,51.9c0.1,0.3,0.1,0.5,0.1,0.8C299.2,52.4,299.1,52.2,299.1,51.9 M150,0
	C66.7,0,0,25,0,56.2c0,31.1,67.3,56.2,150,56.2c82.7,0,150-25.2,150-56.2C300,25.2,232.7,0,150,0" id="path3532" />
    <radialGradient cx="-807.7537" cy="596.2383" gradientTransform="matrix(647.6554 0 0 -631.5305 523294.9375 377163.0938)" gradientUnits="userSpaceOnUse"
        id="path3558_1_" r="1">
	<stop style="stop-color:#00050D" offset="0" />
        <stop style="stop-color:#051125" offset="0.7" />
        <stop style="stop-color:#173E7E" offset="0.9045" />
        <stop style="stop-color:#4CA9E3" offset="0.955" />
        <stop style="stop-color:#4CA9E3" offset="1" />
</radialGradient>
    <path class="st1" d="M2.3,56.2c0,29.8,66.1,54,147.7,54l0,0c81.6,0,147.7-24.1,147.7-54l0,0c0-29.8-66.1-54-147.7-54
	l0,0C68.4,2.2,2.3,26.4,2.3,56.2" id="path3558" />
    <linearGradient gradientTransform="matrix(0 -114.3202 -114.3202 0 67591.9141 -92852.2812)" gradientUnits="userSpaceOnUse" id="path3580_1_" x1="-813.2072"
        x2="-812.2072" y1="589.9409" y2="589.9409">
	<stop style="stop-color:#08142E" offset="0" />
        <stop style="stop-color:#17326E" offset="0.809" />
        <stop style="stop-color:#0D69A9" offset="1" />
</linearGradient>
    <path class="st2" d="M13.4,56.2c0,2,0.4,4,1.2,6l0,0c-0.3-1.3-0.5-2.6-0.5-3.9l0,0c0-24.7,61.1-44.7,136.6-44.7l0,0
	c69.4,0,126.7,16.9,135.4,38.9l0,0c-5.8-23.1-64.5-41.2-136.1-41.2l0,0C74.6,11.2,13.4,31.4,13.4,56.2" id="path3580" />
    <linearGradient gradientTransform="matrix(0 -114.3306 -114.3306 0 67599.9688 -92860.6797)" gradientUnits="userSpaceOnUse" id="path3602_1_" x1="-813.2068"
        x2="-812.2068" y1="589.9415" y2="589.9415">
	<stop style="stop-color:#08142E" offset="0" />
        <stop style="stop-color:#17326E" offset="0.809" />
        <stop style="stop-color:#0D69A9" offset="1" />
</linearGradient>
    <path class="st3" d="M291.5,56.2c0,27.2-63.4,49.3-141.5,49.3l0,0C80.4,105.5,22.6,88,10.7,65l0,0
	c9.1,24,68.4,42.5,140.3,42.5l0,0c78.2,0,141.5-21.9,141.5-48.8l0,0c0-2.7-0.7-5.4-1.9-8l0,0C291.2,52.4,291.5,54.3,291.5,56.2" id="path3602" />
    <linearGradient gradientTransform="matrix(0 -79.21 -79.21 0 46656.9844 -64467.7852)" gradientUnits="userSpaceOnUse" id="path3624_1_" x1="-815.0721"
        x2="-814.0721" y1="586.8118" y2="586.8118">
	<stop style="stop-color:#08142E" offset="0" />
        <stop style="stop-color:#17326E" offset="0.809" />
        <stop style="stop-color:#0D69A9" offset="1" />
</linearGradient>
    <path class="st4" d="M176.4,61c-3.2,3.3-3.4,7.6-1.3,9.5l0,0c0.7,0.7,1.6,1,2.5,1.1l0,0c-1.4-1.7-2-5.1-0.3-7.7l0,0
	c-0.3-0.8-0.4-1.7-0.2-2.6l0,0c0-0.2-0.1-0.4-0.3-0.4l0,0C176.6,60.8,176.5,60.9,176.4,61" id="path3624" />
    <linearGradient gradientTransform="matrix(0 -80.2656 -80.2656 0 47321.0234 -65321.4297)" gradientUnits="userSpaceOnUse" id="path3646_1_" x1="-814.9923"
        x2="-813.9923" y1="586.9459" y2="586.9459">
	<stop style="stop-color:#08142E" offset="0" />
        <stop style="stop-color:#17326E" offset="0.809" />
        <stop style="stop-color:#0D69A9" offset="1" />
</linearGradient>
    <path class="st5" d="M209.1,68c0,0.5,0.2,1.4,0.3,2.1l0,0c0.2-0.3,0.3-0.6,0.5-1l0,0c0.1-0.3,0.1-0.3-0.1-0.4l0,0
	c-0.3-0.1-0.7-0.4-0.7-0.6l0,0C209,68.1,209,68.1,209.1,68L209.1,68L209.1,68L209.1,68z" id="path3646" />
    <linearGradient gradientTransform="matrix(0 -73.5277 -73.5277 0 43303.4336 -59873.6016)" gradientUnits="userSpaceOnUse" id="path3668_1_" x1="-815.5414"
        x2="-814.5414" y1="586.0245" y2="586.0245">
	<stop style="stop-color:#08142E" offset="0" />
        <stop style="stop-color:#17326E" offset="0.809" />
        <stop style="stop-color:#0D69A9" offset="1" />
</linearGradient>
    <path class="st6" d="M212.9,57.2c1.1,1,1.7,2.2,1.8,3.4l0,0c0,0.5,0.5,0.6,0.8,0.1l0,0c0.1-0.1,0.2-0.3,0.3-0.5l0,0
	c-0.1-0.1-0.2-0.2-0.3-0.4l0,0C215.1,59.3,214,58.2,212.9,57.2L212.9,57.2z" id="path3668" />
    <linearGradient gradientTransform="matrix(0 -76.0038 -76.0038 0 44737.418 -61875.7109)" gradientUnits="userSpaceOnUse" id="path3690_1_" x1="-815.3283"
        x2="-814.3283" y1="586.3821" y2="586.3821">
	<stop style="stop-color:#08142E" offset="0" />
        <stop style="stop-color:#17326E" offset="0.809" />
        <stop style="stop-color:#0D69A9" offset="1" />
</linearGradient>
    <path class="st7" d="M169,55.2c0.8,1.2,1.2,2.8,1.2,4.9l0,0c0,0.5,0.4,0.5,0.6,0.1l0,0c0.1-0.2,0.3-0.4,0.4-0.6l0,0
	C170.7,57.7,169.7,55.9,169,55.2z" id="path3690" />
    <linearGradient gradientTransform="matrix(0 -80.1365 -80.1365 0 47236.4375 -65217.0273)" gradientUnits="userSpaceOnUse" id="path3742_1_" x1="-815.002"
        x2="-814.002" y1="586.9297" y2="586.9297">
	<stop style="stop-color:#08142E" offset="0" />
        <stop style="stop-color:#17326E" offset="0.809" />
        <stop style="stop-color:#0D69A9" offset="1" />
</linearGradient>
    <path class="st8" d="M198.3,66.2c-3,3.6-4.6,7.3-4.6,10.9l0,0c0,1.3,0.5,2.9,1.6,3.4l0,0c0.4,0.2,0.7,0.3,1.1,0.4l0,0
	c-0.1-0.5-0.2-1-0.2-1.4l0,0c0-3.7,1.1-7.4,4.1-11.1l0,0c3.6-4.4,7.4-6.6,10-5.4l0,0c-0.1-1-0.6-1.8-1.7-2.3l0,0
	c-0.5-0.2-1-0.3-1.6-0.3l0,0C204.4,60.4,201.2,62.6,198.3,66.2" id="path3742" />
    <linearGradient gradientTransform="matrix(0 -80.1195 -80.1195 0 47156.9727 -65203.3281)" gradientUnits="userSpaceOnUse" id="path3764_1_" x1="-815.0032"
        x2="-814.0032" y1="586.9276" y2="586.9276">
	<stop style="stop-color:#08142E" offset="0" />
        <stop style="stop-color:#17326E" offset="0.809" />
        <stop style="stop-color:#0D69A9" offset="1" />
</linearGradient>
    <path class="st9" d="M138.9,58.5c-4,1.5-8,3.9-10.8,7.6l0,0c-3.2,4.2-4,9.3-1.9,12.3l0,0c0.5,0.7,1.1,1.2,1.8,1.5l0,0
	c-1.1-3.5-0.3-8.2,2.4-11.8l0,0c2.8-3.7,5.9-5.1,9.4-6.7l0,0c0.5-0.2,0.5-0.5,0.4-0.9l0,0c-0.2-0.7-0.6-2.5-0.8-2.9l0,0l0,0
	C139.5,58.1,139.4,58.4,138.9,58.5" id="path3764" />
    <linearGradient gradientTransform="matrix(0 -79.5717 -79.5717 0 46864.5625 -64760.1562)" gradientUnits="userSpaceOnUse" id="path3786_1_" x1="-815.0446"
        x2="-814.0446" y1="586.8582" y2="586.8582">
	<stop style="stop-color:#08142E" offset="0" />
        <stop style="stop-color:#17326E" offset="0.809" />
        <stop style="stop-color:#0D69A9" offset="1" />
</linearGradient>
    <path class="st10" d="M168.9,69.8c-3.7,5.7-7.2,11.2-10.9,17l0,0c-0.2,0.3-0.4,0.4-0.7,0.5l0,0c-2.3,0-4.8,0-7.3,0
	l0,0c-0.3,0-0.4-0.1-0.5-0.3l0,0c0.2,0.9,0.5,2.5,0.6,2.9l0,0c0.1,0.3,0.3,0.4,0.5,0.4l0,0c2.7,0,6,0,8.3,0l0,0
	c0.3,0,0.6-0.2,0.7-0.5l0,0c3.4-5.3,7-11,10.4-16.3l0,0c0.8,2.7,1.1,3.9,2.6,5.2l0,0c1.4,1.3,2.7,1.6,4.7,1.6l0,0
	c1.8,0,3.5-0.7,5.6-1.6l0,0c0.8-0.3,1.4-0.7,2-1.1l0,0c0-1,0.1-2,0.3-2.9l0,0c0-0.1-0.1-0.7-0.6-0.4l0,0c-1,0.7-2.2,1.4-3.8,2l0,0
	c-1.9,0.7-2.8,1-4.6,1l0,0c-2.2,0-4.2-1-5.6-3.2l0,0c-0.8-1.2-1.1-3-1.2-4.3l0,0c0-0.1-0.1-0.2-0.2-0.2l0,0
	C169.1,69.7,169,69.7,168.9,69.8" id="path3786" />
    <linearGradient gradientTransform="matrix(0 -80.1548 -80.1548 0 47255.0391 -65231.8555)" gradientUnits="userSpaceOnUse" id="path3808_1_" x1="-815.0006"
        x2="-814.0006" y1="586.9321" y2="586.9321">
	<stop style="stop-color:#08142E" offset="0" />
        <stop style="stop-color:#17326E" offset="0.809" />
        <stop style="stop-color:#0D69A9" offset="1" />
</linearGradient>
    <path class="st11" d="M233.3,72.8c-3.6,4.4-7.5,8.5-11.3,11.4l0,0c-5.9,4.6-11.7,5.7-14.6,2.8l0,0
	c-1.1-1.1-1.7-2.6-1.7-4l0,0c0-0.7-0.4-0.7-0.7-0.4l0,0c-3.5,3.4-9.5,7.2-15,4.5l0,0c-2.7-1.4-4.2-3.9-4.8-6.7l0,0
	c0.3,2,0.8,4.9,1.7,6.7l0,0c0.6,1.2,2,2.6,2.9,3l0,0c4.9,2.4,11.8-0.3,16.3-4.6l0,0c0-0.1,0.1-0.1,0.1-0.1l0,0
	c0.2,0.8,0.5,1.7,0.5,1.8l0,0c0.3,1,0.8,1.9,1.2,2.4l0,0c3.1,3.5,9.5,1.9,16.3-3.3l0,0c3.8-2.9,6.6-5.8,10-9.8l0,0
	c0.1-0.2,0.1-0.4,0.1-0.8l0,0c-0.2-0.9-0.5-2.4-0.7-3.2l0,0C233.4,72.5,233.4,72.7,233.3,72.8 M185.1,80.2c0,0.1,0,0.2,0,0.2l0,0
	C185.1,80.4,185.1,80.3,185.1,80.2L185.1,80.2C185.1,80.3,185.1,80.2,185.1,80.2L185.1,80.2z" id="path3808" />
    <linearGradient gradientTransform="matrix(0 -80.2057 -80.2057 0 47258.2461 -65272.9961)" gradientUnits="userSpaceOnUse" id="path3830_1_" x1="-814.9968"
        x2="-813.9968" y1="586.9384" y2="586.9384">
	<stop style="stop-color:#08142E" offset="0" />
        <stop style="stop-color:#17326E" offset="0.809" />
        <stop style="stop-color:#0D69A9" offset="1" />
</linearGradient>
    <path class="st12" d="M186.8,60.7c-0.3,2.2-1.5,4.1-3.5,5.1l0,0c-1.7,0.8-3.7,0.7-5.1-0.6l0,0c-0.4-0.4-0.7-0.9-1-1.4
	l0,0c0.4,1.6,0.7,2.8,1.1,3.5l0,0c1.3,2,3.6,2.5,6.1,1.1l0,0c1.8-1,3.4-3.1,3.2-6.4l0,0c-0.1-1.7-0.6-3.4-1.4-4.8l0,0
	C186.8,58.3,187,59.5,186.8,60.7" id="path3830" />
    <linearGradient gradientTransform="matrix(0 -80.1351 -80.1351 0 47259.8281 -65215.9531)" gradientUnits="userSpaceOnUse" id="path3852_1_" x1="-815.0021"
        x2="-814.0021" y1="586.9295" y2="586.9295">
	<stop style="stop-color:#08142E" offset="0" />
        <stop style="stop-color:#17326E" offset="0.809" />
        <stop style="stop-color:#0D69A9" offset="1" />
</linearGradient>
    <path class="st13" d="M238.1,40.1c-1.1,2-23.1,35.4-24.5,38.9l0,0c-0.4,1.1-0.5,1.9,0,2.5l0,0
	c0.5,0.6,1.1,0.8,1.9,0.8l0,0c0.1-0.4,0.2-0.9,0.4-1.4l0,0c1.4-3.5,22-34.7,23.1-36.7l0,0c0.1-0.2,0.1-0.4,0-0.5l0,0
	c-0.1-0.3-0.8-3.6-0.8-3.9l0,0C238.2,39.9,238.2,40,238.1,40.1" id="path3852" />
    <linearGradient gradientTransform="matrix(0 -78.2857 -78.2857 0 46078.3164 -63720.6211)" gradientUnits="userSpaceOnUse" id="path3874_1_" x1="-815.1439"
        x2="-814.1439" y1="586.6916" y2="586.6916">
	<stop style="stop-color:#08142E" offset="0" />
        <stop style="stop-color:#17326E" offset="0.809" />
        <stop style="stop-color:#0D69A9" offset="1" />
</linearGradient>
    <path class="st14" d="M146.9,55.7c0.1,0.1,0.1,0.1,0.2,0.2l0,0c1.3,2,2,4.7,2.1,7.6l0,0c0.1,0.6,0.3,0.6,0.6,0.3l0,0
	c0.3-0.3,0.5-0.6,0.8-0.8l0,0c-0.4-1.5-1-2.9-1.6-4.2l0,0C148.8,58.2,147.8,56.5,146.9,55.7z" id="path3874" />
    <linearGradient gradientTransform="matrix(0 -79.5963 -79.5963 0 46848.2422 -64780.0547)" gradientUnits="userSpaceOnUse" id="path3896_1_" x1="-815.0427"
        x2="-814.0427" y1="586.8613" y2="586.8613">
	<stop style="stop-color:#08142E" offset="0" />
        <stop style="stop-color:#17326E" offset="0.809" />
        <stop style="stop-color:#0D69A9" offset="1" />
</linearGradient>
    <path class="st15" d="M158.1,62.3c-4.7,3.6-8.7,9.2-10.7,11.7l0,0c-1.2,1.5-2.3,3.6-5.4,7l0,0
	c-4.9,5.3-11.4,8.4-17.6,6.2l0,0c-3.4-1.1-5.9-3.9-6.8-7.3l0,0c-0.2-0.7-0.6-0.8-0.9-0.4l0,0c-1,1.3-3.1,3.1-4.8,4.3l0,0
	c-0.2,0.1-0.7,0.4-1.1,0.2l0,0c-0.4-0.2-1.6-2-1.9-2.5l0,0c0-0.1-0.1-0.1-0.1-0.2l0,0v0c0.4,2.2,0.5,2.5,1.1,3.5l0,0
	c0.7,1.1,1.4,1.9,1.5,2l0,0c0.4,0.2,0.8,0,1-0.1l0,0c1.3-0.7,3.9-2.7,5.1-4.1l0,0c0.3-0.3,0.7-0.1,0.8,0.2l0,0
	c0.5,1.5,1.2,2.6,1.9,3.9l0,0c0.8,1.4,2.5,2.8,4.7,3.4l0,0c2.8,0.8,5.9,0.9,9.9-0.6l0,0c3.2-1.2,6.6-3.7,9.2-6.6l0,0
	c3.1-3.4,4.2-5.5,5.4-7l0,0c2-2.5,5.2-6.9,9.6-10.7l0,0c1.5-1.3,3.2-2.2,4.3-1.8l0,0c0.6-1.6,0.3-2.5-0.3-3l0,0
	c-0.2-0.1-0.5-0.2-0.8-0.2l0,0C161,60.4,159.5,61.3,158.1,62.3" id="path3896" />
    <linearGradient gradientTransform="matrix(0 -80.1316 -80.1316 0 47107.3984 -65213.1211)" gradientUnits="userSpaceOnUse" id="path3918_1_" x1="-815.0023"
        x2="-814.0023" y1="586.9291" y2="586.9291">
	<stop style="stop-color:#08142E" offset="0" />
        <stop style="stop-color:#17326E" offset="0.809" />
        <stop style="stop-color:#0D69A9" offset="1" />
</linearGradient>
    <path class="st16" d="M79.3,57.8c-2.7,1.4-5.9,3.7-7.5,6.9l0,0c-1.3,2.6-1.5,5.7,0.4,8.7l0,0c0.2,0.2,0.3,0.5,0.5,0.7
	l0,0c-0.6-2.5,0.1-5.1,1-7.1l0,0c1.6-3.2,3.8-4.7,6-6.1l0,0c0.9-0.6,1.4-1.2,0.8-2.7l0,0c-0.2-0.4-0.3-1.2-0.4-1.9l0,0
	C80.2,56.9,79.9,57.5,79.3,57.8" id="path3918" />
    <linearGradient gradientTransform="matrix(0 -80.1145 -80.1145 0 47133.0273 -65199.25)" gradientUnits="userSpaceOnUse" id="path3940_1_" x1="-815.0036"
        x2="-814.0036" y1="586.9269" y2="586.9269">
	<stop style="stop-color:#08142E" offset="0" />
        <stop style="stop-color:#17326E" offset="0.809" />
        <stop style="stop-color:#0D69A9" offset="1" />
</linearGradient>
    <path class="st17" d="M99.4,25.9c-7.7,2.9-11.1,9-9.5,13.1l0,0c0.3,0.8,0.8,1.4,1.5,1.8l0,0
	c-0.5-3.8,2.3-9.9,9.7-12.4l0,0c9.7-3.2,20.5-1.2,29.2,0.7l0,0c1.2-0.8,2.3-1.3,3.3-1.9l0,0c0.5-0.3-0.1-0.6-0.2-0.6l0,0
	c-6.9-1.3-14.1-2.9-21.1-2.9l0,0C107.9,23.7,103.6,24.3,99.4,25.9" id="path3940" />
    <linearGradient gradientTransform="matrix(0 -80.1344 -80.1344 0 47134.4766 -65215.3672)" gradientUnits="userSpaceOnUse" id="path3962_1_" x1="-815.0021"
        x2="-814.0021" y1="586.9294" y2="586.9294">
	<stop style="stop-color:#08142E" offset="0" />
        <stop style="stop-color:#17326E" offset="0.809" />
        <stop style="stop-color:#0D69A9" offset="1" />
</linearGradient>
    <path class="st18" d="M131.7,48.8c-3.5,0.2-8.9,0.7-12.6,1.2l0,0c-0.9,0.1-1,0.3-1.2,0.6l0,0
	c-5.9,9.7-12.1,20.1-19,27.1l0,0c-7.4,7.5-13.5,9.5-20,9.5l0,0c-7.5,0.1-14.2-4.2-15.9-11.7l0,0c0.9,4.2,3.6,9.2,6.7,11.4l0,0
	c3.2,2.2,6.3,3,9.9,3l0,0c7.4,0.1,14.2-2.9,21.4-10.2l0,0c6.9-7,12.9-16.8,18.7-26.5l0,0c0.2-0.3,0.4-0.5,1.4-0.6l0,0
	c3.7-0.5,7-0.7,10.3-1l0,0c1-0.1,1.7-0.2,2.1,0.2l0,0c1.2,1.2,2.5,2.3,3.5,2.8l0,0c0.6,0,1.1,0.1,1.5,0.5l0,0c0.4-0.1,0.7-0.3,1-0.5
	l0,0c0.4-0.4,0.4-0.9,0.4-1.3l0,0c-0.1-0.8-0.4-2.4-0.6-2.8l0,0c0.2,0.3,0.1,0.8-0.3,1.2l0,0c-0.3,0.3-0.7,0.6-1.2,0.6l0,0
	c-0.4,0-0.7-0.2-1.2-0.4l0,0c-1.1-0.6-2.5-1.6-3.4-2.7l0,0c-0.2-0.3-0.4-0.4-0.8-0.4l0,0C132,48.7,131.9,48.8,131.7,48.8" id="path3962" />
    <linearGradient gradientTransform="matrix(0 -80.1746 -80.1746 0 47160.3594 -65247.8398)" gradientUnits="userSpaceOnUse" id="path3984_1_" x1="-814.9991"
        x2="-813.9991" y1="586.9344" y2="586.9344">
	<stop style="stop-color:#08142E" offset="0" />
        <stop style="stop-color:#17326E" offset="0.809" />
        <stop style="stop-color:#0D69A9" offset="1" />
</linearGradient>
    <path class="st19" d="M99.9,54.6c-0.8,0.6-2,0.5-2.5-0.3l0,0c-0.2-0.3-0.3-0.6-0.3-0.8l0,0c-0.1,1.3,0.4,3.1,0.8,3.7
	l0,0c0.4,0.7,1.7,1,2.7,0.3l0,0c2.2-1.7,4.3-2.6,6.5-3.1l0,0c0.6-0.8,1.2-1.7,1.9-2.7l0,0c0.1-0.1,0.1-0.2,0-0.2l0,0
	c0-0.1-0.1-0.1-0.3-0.1l0,0C105.6,51.5,102.7,52.5,99.9,54.6" id="path3984" />
    <linearGradient gradientTransform="matrix(0 -78.4306 -78.4306 0 46209.6445 -63838.4727)" gradientUnits="userSpaceOnUse" id="path4006_1_" x1="-815.1325"
        x2="-814.1325" y1="586.7106" y2="586.7106">
	<stop style="stop-color:#08142E" offset="0" />
        <stop style="stop-color:#17326E" offset="0.809" />
        <stop style="stop-color:#0D69A9" offset="1" />
</linearGradient>
    <path class="st20" d="M193.5,23.8c0,0.1,0.1,0.1,0.1,0.2l0,0C193.6,23.9,193.6,23.8,193.5,23.8z" id="path4006" />
    <linearGradient gradientTransform="matrix(0 -80.1255 -80.1255 0 47185.6055 -65208.1797)" gradientUnits="userSpaceOnUse" id="path4028_1_" x1="-815.0028"
        x2="-814.0028" y1="586.9283" y2="586.9283">
	<stop style="stop-color:#08142E" offset="0" />
        <stop style="stop-color:#17326E" offset="0.809" />
        <stop style="stop-color:#0D69A9" offset="1" />
</linearGradient>
    <path class="st21" d="M193.9,25.2c-0.1,2.1-1.8,4.2-5.9,6.4l0,0c-4.7,2.6-9.5,3.3-14.6,3.4l0,0
	c-12.3,0.1-23.8-4.7-35.6-7.3l0,0c0,0.5,0.1,1.1-0.3,1.5l0,0C130.9,34.1,125,39,121,45.9l0,0c-0.1,0.2-0.1,0.3,0.2,0.3l0,0
	c1.1-0.1,2.1-0.1,3.1-0.2l0,0c3.6-5.7,7.5-8.9,13.4-13.3l0,0c0.4-0.3,0.9-0.6,0.7-1.8l0,0c11.9,2.6,20.9,7,36.3,7.1l0,0
	c4.6,0,11-1.5,14.5-3.6l0,0c4-2.4,5.1-4.2,5.2-6l0,0c0-0.6-0.1-1.5-0.2-1.9l0,0c-0.1-0.6-0.2-1.4-0.4-2l0,0
	C193.9,24.6,193.9,24.9,193.9,25.2" id="path4028" />
    <linearGradient gradientTransform="matrix(0 -75.7006 -75.7006 0 44523.125 -61631.1562)" gradientUnits="userSpaceOnUse" id="path4050_1_" x1="-815.3537"
        x2="-814.3537" y1="586.3395" y2="586.3395">
	<stop style="stop-color:#08142E" offset="0" />
        <stop style="stop-color:#17326E" offset="0.809" />
        <stop style="stop-color:#0D69A9" offset="1" />
</linearGradient>
    <path class="st22" d="M136.6,39.7c-0.1,0.1-0.3,0.3-0.5,0.4l0,0c-1.2,1.2-1.5,2.8-1.4,4l0,0c0.1,0.5,0.3,0.6,0.5,0.5
	l0,0c0.2,0,0.5-0.1,0.7-0.2l0,0c0.1-0.7,0.4-1.3,1-1.9l0,0c0.5-0.4,1.1-0.6,1.6-0.5l0,0c0.5-0.9,0.6-2,0-2.5l0,0
	c-0.2-0.2-0.5-0.3-0.9-0.3l0,0C137.4,39.3,137,39.4,136.6,39.7" id="path4050" />
    <linearGradient gradientTransform="matrix(0 -80.1342 -80.1342 0 47172.5547 -65215.1875)" gradientUnits="userSpaceOnUse" id="path4072_1_" x1="-815.0021"
        x2="-814.0021" y1="586.9294" y2="586.9294">
	<stop style="stop-color:#08142E" offset="0" />
        <stop style="stop-color:#17326E" offset="0.809" />
        <stop style="stop-color:#0D69A9" offset="1" />
</linearGradient>
    <path class="st23" d="M141.3,43.9c-1.1,2.2-3,3.3-4.8,3.9l0,0c0,0-0.4,0.1-0.3,0.4l0,0c0,0.4,1.3,1.2,2.1,1.7l0,0
	c0.1,0,0.3-0.1,0.3-0.1l0,0c0.9-0.4,2.4-1.3,3.3-3.2l0,0c0.6-1.2,0.9-2.2,0.6-4.4l0,0c-0.2-1.5-0.5-2.9-0.9-3.5l0,0
	C142.5,40.3,142.2,42.3,141.3,43.9" id="path4072" />
    <linearGradient gradientTransform="matrix(0 -80.1372 -80.1372 0 47130.418 -65217.6133)" gradientUnits="userSpaceOnUse" id="path4094_1_" x1="-815.0019"
        x2="-814.0019" y1="586.9297" y2="586.9297">
	<stop style="stop-color:#08142E" offset="0" />
        <stop style="stop-color:#17326E" offset="0.809" />
        <stop style="stop-color:#0D69A9" offset="1" />
</linearGradient>
    <path class="st24" d="M108.5,33.8c0.2,0.5,0.2,1.4-0.2,2.4l0,0c-3.3,7.7-9.5,13.7-17.1,14l0,0c-4.6,0.1-8-2.2-9.6-5.6
	l0,0c1.2,2.6,3.6,4.9,5.7,6.2l0,0c1.6,1,3.7,1.6,6,1.5l0,0c7.9-0.3,13.9-6.8,15.9-12.3l0,0c0.5-1.5,0.1-3.1-0.1-4.1l0,0
	C108.9,35.4,108.8,34.5,108.5,33.8L108.5,33.8L108.5,33.8z" id="path4094" />
    <path class="st25" d="M299.1,51.9c0.1,0.3,0.1,0.5,0.1,0.8C299.2,52.4,299.1,52.2,299.1,51.9 M1,56.9
	c0-6.6,2.9-13.1,9-19.3C31.5,15.9,87.7,1.3,149.7,1C231.9,0.7,298.8,25.2,299,55.6c0,6.6-3,13-9.1,19.2
	c-21.5,21.7-77.6,36.4-139.6,36.6C68.1,111.8,1.2,87.3,1,56.9 M150,0C66.7,0,0,25,0,56.2c0,31.1,67.3,56.2,150,56.2
	c82.7,0,150-25.2,150-56.2C300,25.2,232.7,0,150,0" id="path4106" />
    <linearGradient gradientTransform="matrix(-34.6579 -129.3445 -129.3445 34.6579 48490.4805 -125672.0547)" gradientUnits="userSpaceOnUse" id="path4130_1_"
        x1="-814.0291" x2="-813.0291" y1="592.1085" y2="592.1085">
	<stop style="stop-color:#B2B1B1" offset="0" />
        <stop style="stop-color:#DEDDDE" offset="0.35" />
        <stop style="stop-color:#DEDDDE" offset="0.65" />
        <stop style="stop-color:#B2B1B1" offset="1" />
</linearGradient>
    <path class="st26" d="M0.5,56.2c0,1.5,0.2,2.9,0.5,4.4l0,0c-0.2-1.2-0.4-2.5-0.4-3.7l0,0c0-6.7,3-13.4,9.1-19.6l0,0
	C31.3,15.5,87.6,0.8,149.7,0.6l0,0c8.6,0,17.1,0.2,25.3,0.7l0,0c-8.1-0.5-16.5-0.8-25-0.8l0,0C67.1,0.5,0.5,25.3,0.5,56.2" id="path4130" />
    <linearGradient gradientTransform="matrix(-34.497 -128.7448 -128.7448 34.497 48353.8281 -125161.7031)" gradientUnits="userSpaceOnUse" id="path4154_1_"
        x1="-814.0526" x2="-813.0526" y1="592.0857" y2="592.0857">
	<stop style="stop-color:#B2B1B1" offset="0" />
        <stop style="stop-color:#DEDDDE" offset="0.35" />
        <stop style="stop-color:#DEDDDE" offset="0.65" />
        <stop style="stop-color:#B2B1B1" offset="1" />
</linearGradient>
    <path class="st27" d="M299.4,55.6c0,6.7-3.1,13.3-9.3,19.5l0,0c-21.5,21.7-77.8,36.5-139.9,36.8l0,0
	c-8.8,0-17.4-0.2-25.8-0.7l0,0c8.3,0.5,16.8,0.8,25.5,0.8l0,0c82.5,0,149.5-25.2,149.5-55.8l0,0c0-1.2-0.1-2.3-0.3-3.5l0,0
	C299.4,53.7,299.4,54.7,299.4,55.6" id="path4154" />
    <linearGradient gradientTransform="matrix(0 114.9095 114.9095 0 -69257.9688 92479.3906)" gradientUnits="userSpaceOnUse" id="path4180_1_" x1="-804.8138"
        x2="-803.8138" y1="604.0229" y2="604.0229">
	<stop style="stop-color:#FFFFFF" offset="0" />
        <stop style="stop-color:#FFFFFF" offset="0.5522" />
        <stop style="stop-color:#FAFAFA" offset="0.691" />
        <stop style="stop-color:#D3D2D2" offset="0.8" />
        <stop style="stop-color:#BDBCBC" offset="1" />
</linearGradient>
    <path class="st28" d="M8.4,56.2c0,27.2,63.4,49.3,141.5,49.3l0,0c78.2,0,141.5-22.1,141.5-49.3l0,0
	C291.5,29,228.2,7,150,7l0,0C71.8,7,8.4,29,8.4,56.2 M13.4,56.2c0-24.9,61.1-45,136.6-45l0,0c75.4,0,136.6,20.1,136.6,45l0,0
	c0,24.9-61.1,45-136.6,45l0,0C74.6,101.2,13.4,81.1,13.4,56.2" id="path4180" />
    <linearGradient gradientTransform="matrix(0 56.9881 56.9881 0 -34655.3828 45657.7461)" gradientUnits="userSpaceOnUse" id="path4206_1_" x1="-800.5593"
        x2="-799.5593" y1="611.1607" y2="611.1607">
	<stop style="stop-color:#FFFFFF" offset="0" />
        <stop style="stop-color:#FFFFFF" offset="0.5522" />
        <stop style="stop-color:#EFEEEE" offset="0.691" />
        <stop style="stop-color:#E9E9E9" offset="0.8" />
        <stop style="stop-color:#D3D2D2" offset="1" />
</linearGradient>
    <path class="st29" d="M230.1,39.5c-0.6,0-0.8,0.1-1.1,0.6l0,0c-0.9,1.7-11.5,17.5-13.4,20.6l0,0
	c-0.3,0.5-0.7,0.4-0.8-0.1l0,0c-0.2-1.8-1.8-3.9-4.3-4.9l0,0c-1.9-0.8-3.8-0.9-5.7-0.7l0,0c-3.5,0.5-6.6,2.3-9.3,4.4l0,0
	c-4.1,3.1-7.7,7.2-12.2,10.2l0,0c-2.5,1.6-5.9,3.1-8.2,0.9l0,0c-2.1-1.9-1.8-6.2,1.3-9.5l0,0c0.3-0.3,0.7-0.1,0.7,0.3l0,0
	c-0.3,1.5,0.1,3,1.2,4l0,0c1.4,1.2,3.4,1.4,5.1,0.6l0,0c2-1,3.2-2.9,3.5-5.1l0,0c0.5-3.4-2.1-6.3-5.3-6.6l0,0
	c-2.6-0.2-5.2,0.7-7.6,2.8l0,0c-1.2,1-1.9,1.8-3,3.3l0,0c-0.3,0.4-0.7,0.4-0.6-0.1l0,0c0.1-4.3-1.7-6.7-5.2-6.8l0,0
	c-2.8-0.1-5.7,1.4-8,3.3l0,0c-2.5,2-4.7,4.7-7.1,7.2l0,0c-0.3,0.3-0.6,0.3-0.6-0.3l0,0c-0.1-2.9-0.8-5.6-2.1-7.6l0,0
	c-0.5-0.7-1.5-1-2.3-0.6l0,0c-0.4,0.2-1.7,0.8-2.7,1.6l0,0c-0.5,0.4-0.7,1-0.5,1.7l0,0c1.3,4.3,1,9.1-0.7,13.2l0,0
	c-1.6,3.8-4.7,7.1-8.3,8.3l0,0c-2.4,0.8-4.9,0.4-6.4-1.7l0,0c-2.1-2.9-1.3-8,1.9-12.3l0,0c2.8-3.7,6.8-6.1,10.8-7.6l0,0
	c0.5-0.2,0.6-0.5,0.4-0.9l0,0c-0.2-0.7-0.6-1.6-0.7-2l0,0c-0.4-1-1.4-1.1-2.7-1l0,0c-2.9,0.3-5.5,1.3-8.2,2.7l0,0
	c-6.8,3.6-10.2,10.7-11.7,14.5l0,0c-0.7,1.8-1.3,2.9-2.1,3.9l0,0c-1.1,1.4-2.4,2.6-4.9,4.7l0,0c-0.2,0.2-0.4,0.6-0.2,1l0,0
	c0.3,0.5,1.5,2.3,1.9,2.5l0,0c0.4,0.2,0.9-0.1,1.1-0.2l0,0c1.7-1.2,3.8-3,4.8-4.3l0,0c0.3-0.4,0.7-0.2,0.9,0.4l0,0
	c0.9,3.4,3.4,6.1,6.8,7.3l0,0c6.2,2.1,12.7-0.9,17.6-6.2l0,0c3.1-3.4,4.2-5.5,5.4-7l0,0c2-2.5,6-8.1,10.7-11.7l0,0
	c1.7-1.3,3.8-2.3,4.8-1.7l0,0c0.8,0.5,1.1,1.8-0.2,4.2l0,0c-4.8,8.8-11.9,19.2-13.2,21.7l0,0c-0.2,0.4,0,0.8,0.4,0.8l0,0
	c2.5,0,5,0,7.3,0l0,0c0.4,0,0.6-0.2,0.7-0.5l0,0c3.7-5.8,7.2-11.3,10.9-17l0,0c0.2-0.3,0.4-0.1,0.4,0.1l0,0c0.1,1.3,0.4,3.1,1.2,4.3
	l0,0c1.4,2.2,3.4,3.1,5.6,3.2l0,0c1.8,0,2.7-0.2,4.6-1l0,0c1.6-0.6,2.8-1.3,3.8-2l0,0c0.6-0.4,0.7,0.3,0.6,0.4l0,0
	c-0.9,4.6,0.2,10.1,4.8,12.3l0,0c5.5,2.7,11.5-1.1,15-4.5l0,0c0.3-0.3,0.7-0.3,0.7,0.4l0,0c0.1,1.3,0.7,2.9,1.7,4l0,0
	c2.9,2.9,8.8,1.8,14.6-2.8l0,0c3.8-2.9,7.7-7,11.3-11.4l0,0c0.1-0.2,0.2-0.4,0-0.7l0,0c-0.5-0.6-1.3-1.2-1.9-1.7l0,0
	c-0.2-0.2-0.6-0.1-0.8,0l0,0c-3.7,3.5-6.9,7.4-11.7,10.7l0,0c-1.6,1.1-4.2,2-5.3,0.5l0,0c-0.4-0.6-0.4-1.4,0-2.5l0,0
	c1.4-3.5,23.4-36.9,24.5-38.9l0,0c0.2-0.3,0-0.6-0.4-0.6l0,0C235.4,39.5,232.4,39.5,230.1,39.5 M195.3,80.6
	c-1.1-0.6-1.6-2.2-1.6-3.4l0,0c0.1-3.6,1.7-7.3,4.6-10.9l0,0c3.6-4.4,7.6-6.7,10.2-5.5l0,0c2.7,1.3,1.8,4.4,0.6,6.9l0,0
	c-0.1,0.2-0.1,0.4,0,0.5l0,0c0,0.3,0.4,0.5,0.7,0.6l0,0c0.1,0,0.2,0.1,0.1,0.4l0,0c-0.9,2-1.8,3.2-3,4.9l0,0
	c-1.1,1.6-2.3,2.9-3.8,4.1l0,0c-1.7,1.4-3.9,2.9-6,2.9l0,0C196.5,81.1,195.8,80.9,195.3,80.6" id="path4206" />
    <linearGradient gradientTransform="matrix(0 79.0529 79.0529 0 -47873.4258 63486.4883)" gradientUnits="userSpaceOnUse" id="path4232_1_" x1="-802.9152"
        x2="-801.9152" y1="607.2083" y2="607.2083">
	<stop style="stop-color:#FFFFFF" offset="0" />
        <stop style="stop-color:#FFFFFF" offset="0.5522" />
        <stop style="stop-color:#EFEEEE" offset="0.691" />
        <stop style="stop-color:#E9E9E9" offset="0.8" />
        <stop style="stop-color:#D3D2D2" offset="1" />
</linearGradient>
    <path class="st30" d="M113.3,19.2c-2.1,0-4.2,0.1-6.3,0.3l0,0c-13.5,1.1-26.3,8.7-26.4,20.3l0,0
	c0,5.9,4.2,10.6,10.6,10.4l0,0c7.6-0.3,13.8-6.3,17.1-14l0,0c1.2-2.9-1.1-4.1-2.1-2.4l0,0c-1.9,3-4.7,5.3-7.6,6.8l0,0
	c-3.6,1.7-7.4,1.3-8.5-1.6l0,0c-1.6-4.1,1.8-10.2,9.5-13.1l0,0c11.1-4.1,22.8-1.4,34,0.7l0,0c0.2,0,0.8,0.3,0.2,0.6l0,0
	c-2,1.1-4,2-7.1,4.6l0,0c-2.2,1.9-5.1,4.4-7.3,7.1l0,0c-2.2,2.7-3.8,5.1-5.9,7.8l0,0c-0.3,0.4-0.6,0.4-0.6,0.4l0,0
	c-5.1,0.9-10,1.4-14.6,4.6l0,0c-0.9,0.6-1.3,1.8-0.8,2.7l0,0c0.5,0.8,1.7,0.9,2.5,0.3l0,0c2.8-2.1,5.7-3.1,9.1-3.2l0,0
	c0.1,0,0.2,0,0.3,0.1l0,0c0,0.1,0,0.2,0,0.2l0,0c-5,6.9-6.2,8.5-10,12.8l0,0c-1.9,2.2-3.8,4.1-5.9,6l0,0c-8.5,7.9-17.7,7.8-21,2.8
	l0,0c-2-3-1.7-6.1-0.4-8.7l0,0c1.6-3.2,4.8-5.5,7.5-6.9l0,0c1-0.5,1.3-1.8,0.3-2.9l0,0c-0.6-0.8-2.2-0.9-3.3-0.7l0,0
	c-3.5,0.6-7.6,3.3-10.1,6.5l0,0c-2.7,3.6-4.1,7.9-3.7,12.7l0,0c0.8,8.8,8,13.8,16.2,13.8l0,0c6.5-0.1,12.7-2,20-9.5l0,0
	c6.9-7,13.2-17.4,19-27.1l0,0c0.2-0.3,0.3-0.5,1.2-0.6l0,0c3.7-0.5,9.1-1,12.6-1.2l0,0c0.8,0,0.9,0,1.2,0.4l0,0
	c0.9,1.1,2.3,2.1,3.4,2.7l0,0c0.5,0.3,0.8,0.4,1.2,0.4l0,0c0.5,0,0.9-0.3,1.2-0.6l0,0c0.4-0.4,0.5-0.9,0.3-1.3l0,0
	c-0.2-0.4-2.6-1.7-2.7-2.2l0,0c-0.1-0.3,0.3-0.4,0.3-0.4l0,0c1.8-0.6,3.6-1.7,4.8-3.9l0,0c1.1-2.1,1.3-5-0.7-6.5l0,0
	c-1.8-1.4-4.5-1.2-6.6,0.8l0,0c-2.1,1.9-2.8,4.6-2.5,7l0,0c0,0.4,0,0.6-0.5,0.6l0,0c-3.2,0.3-6.3,0.3-9.8,0.5l0,0
	c-0.2,0-0.3-0.1-0.2-0.3l0,0c4-6.9,9.9-11.8,16.5-16.7l0,0c0.4-0.3,0.3-0.9,0.3-1.5l0,0c11.9,2.6,23.3,7.4,35.6,7.3l0,0
	c5.1,0,10-0.8,14.6-3.4l0,0c4.1-2.2,5.8-4.3,5.9-6.4l0,0c0.1-1.5-0.9-2.4-2.4-2.1l0,0c-12.4,2.9-24.3,2.8-36.7,1.3l0,0
	C140.8,22.7,127.3,19.2,113.3,19.2L113.3,19.2C113.3,19.2,113.3,19.2,113.3,19.2 M134.7,44.1c-0.2-1.3,0.2-3.1,1.7-4.3l0,0
	c0.7-0.6,1.7-0.8,2.2-0.3l0,0c0.7,0.6,0.3,2-0.3,2.9l0,0c-0.7,1.1-2,2-3.1,2.2l0,0c0,0-0.1,0-0.1,0l0,0
	C135,44.7,134.8,44.6,134.7,44.1" id="path4232" />
</svg>
