<?xml version="1.0" encoding="utf-8"?><!-- Generator: Adobe Illustrator 23.0.3, SVG Export Plug-In . SVG Version: 6.00 Build 0)  -->
<svg style="enable-background:new 0 0 595.28 595.28;" id="Layer_1" version="1.1"
	viewBox="0 0 595.28 595.28" x="0px" xmlns="http://www.w3.org/2000/svg" y="0px"
	xml:space="preserve">
	<path style="fill:#60D4FE" class="st1" d="M477.24,118.04c-47.97-47.97-111.76-74.39-179.6-74.39c-67.84,0-131.63,26.42-179.6,74.39
	c-47.97,47.97-74.39,111.76-74.39,179.6s26.42,131.63,74.39,179.6c47.97,47.97,111.76,74.39,179.6,74.39
	c67.84,0,131.63-26.42,179.6-74.39c47.97-47.97,74.39-111.76,74.39-179.6S525.21,166.01,477.24,118.04z M492.21,167.51l-33.69-11.99
	l-56.18-67.28C438.69,106.49,469.68,133.93,492.21,167.51z M356.11,70.88l-56.81,74.03l-12.83,5.68l55.85-82.45l-0.72-0.49
	C346.5,68.58,351.34,69.65,356.11,70.88z M297.64,63.49c11.06,0,21.94,0.79,32.59,2.28l-63.32,93.48l-16.26,7.19L288.6,63.68
	C291.6,63.56,294.61,63.49,297.64,63.49z M223.12,75.65c16.92-5.7,34.71-9.5,53.1-11.17l-42.74,115.76l-2.45,5.06
	c-3.86-1.4-7.93-2.39-12.13-2.91C219.46,173.03,220.59,147.47,223.12,75.65z M226.05,195.58l-18.76,38.76l-38.01,16.73
	c-1.28-4.15-1.98-8.56-1.98-13.13c0-24.63,20.04-44.66,44.66-44.66C216.89,193.29,221.62,194.1,226.05,195.58z M211.62,79.86
	c-1.38,38.69-3.26,88.89-4.01,102.28c-3.28,0.25-6.49,0.77-9.59,1.57l-32.16-79.52C180.08,94.48,195.41,86.28,211.62,79.86z
	 M156.39,111.01l30.99,76.63c-3.9,1.91-7.55,4.27-10.88,7l-55.02-51.09C131.98,131.57,143.68,120.66,156.39,111.01z M114.21,152.27
	l54.29,50.41c-2.24,2.76-4.23,5.73-5.92,8.88l-72.04-23.1C97.33,175.66,105.26,163.55,114.21,152.27z M85.43,198.74l72.83,23.35
	c-0.98,3.33-1.68,6.78-2.03,10.33c-0.03,0-0.06,0-0.09,0c-2.59-0.04-6.38-0.07-11.27-0.08c-8.2-0.02-19.63-0.01-33.96,0.04
	c-14.3,0.05-28.7,0.12-38.22,0.18C76.08,220.88,80.36,209.59,85.43,198.74z M69.72,243.9c32.31-0.2,74.35-0.36,86.57-0.15
	c0.2,1.89,0.49,3.75,0.87,5.57l-92,20.44C66.2,260.99,67.73,252.36,69.72,243.9z M63.49,297.64c0-5.38,0.2-10.72,0.56-16.01
	l72.36-16.08l-72.92,32.1C63.49,297.65,63.49,297.64,63.49,297.64z M380.63,519.58c0,0-42.81,13.32-44.24,13.32
	c-1.43,0,32.35-11.42,34.73-15.22c2.38-3.81,16.65-90.86,16.65-90.86l7.14,82.29L380.63,519.58z M417.26,502.46l-14.27,6.66
	l5.23-5.23l-17.6-78.01l40.43,64.69L417.26,502.46z M477.67,337.66c-0.18-0.45-0.3-0.72-0.3-0.72l0.49,0.22
	C477.81,337.31,477.74,337.48,477.67,337.66z M492.56,283.44c0,0-2.82,7.08-4.34,8.3c-1.52,1.22-6.51,4.4-6.51,4.4l4.12,1.22
	c0,0-2.82,4.15-3.47,4.4c-0.65,0.24-3.25,2.2-3.25,2.2s5.64,0.49,4.77,0.98c-0.87,0.49-6.29,5.37-6.29,5.37l4.91,0.89
	c0,0-6.68,11.95-7.76,12.57c-2.34-4.71-4.35-8.75-4.53-9.05c-0.43,0.73-12.15,24.42-12.15,24.42l4.99-2.2c0,0-2.82,7.08-4.34,8.3
	c-1.52,1.22-6.51,4.4-6.51,4.4l4.12,1.22c0,0-2.82,4.15-3.47,4.4c-0.65,0.24-3.25,2.2-3.25,2.2s5.64,0.49,4.77,0.98
	c-0.87,0.49-6.29,5.37-6.29,5.37l6.72,1.22c0,0-7.37,9.77-7.59,10.74c-0.22,0.98-7.81,4.4-7.81,4.4l3.47,1.47l-4.34,3.42l5.21,1.95
	l3.69-1.47l-5.21,6.11l5.33-1.6l-8.8,12.1c-0.65,0-4.34,0.98-4.34,0.98l0.26,0.26l-3.56,1.08c0,0-24.45,30.84-26.71,33.82
	l-17.6-23.82c0,0-43.76,23.78-63.74,33.3c-19.98,9.51-56.61,9.99-56.61,9.99s-7.14,18.08-19.98,38.53
	c-7.04,11.21-13.08,19.85-17.1,25.36c-4.66-1.42-12.43-14.16-12.43-14.16l-4.14-5.32c0,0,5.32-1.48,6.5-1.77
	c1.18-0.3-6.21-5.61-7.09-5.61s7.68-2.07,7.68-2.07l-9.75-6.8l-8.57-8.27c0,0-0.16-4.26-0.43-10.95l-2.7,1l-4.06-90.3
	c-0.98-0.54-7.88-9.91-7.88-9.91l5.38-0.98c0,0-4.34-3.91-5.03-4.3c-0.69-0.39,3.82-0.78,3.82-0.78s-2.08-1.56-2.6-1.76
	c-0.52-0.2-2.78-3.52-2.78-3.52l3.3-0.98c0,0-3.99-2.54-5.21-3.52c-1.21-0.98-3.47-6.64-3.47-6.64l3.99,1.76
	c0,0-9.37-18.95-9.72-19.54c-0.35,0.59-9.72,19.54-9.72,19.54l3.99-1.76c0,0-2.26,5.67-3.47,6.64c-1.21,0.98-5.21,3.52-5.21,3.52
	l3.3,0.98c0,0-2.26,3.32-2.78,3.52c-0.52,0.2-2.6,1.76-2.6,1.76s4.51,0.39,3.82,0.78c-0.69,0.39-5.03,4.3-5.03,4.3l5.38,0.98
	c0,0-3.9,5.17-5.45,7.52c-3.76-7.6-9.9-19.99-10.23-20.54c-0.47,0.79-13.11,26.36-13.11,26.36l5.38-2.37c0,0-3.04,7.64-4.68,8.96
	c-1.64,1.32-7.02,4.74-7.02,4.74l4.45,1.32c0,0-3.04,4.48-3.75,4.74c-0.7,0.26-3.51,2.37-3.51,2.37s6.09,0.53,5.15,1.05
	c-0.94,0.53-6.79,5.8-6.79,5.8l7.26,1.32c0,0-9.92,13.02-11.71,13.96c-3.4-4.3-8.59-10.39-8.59-10.39l10.17-1.64
	c0,0-8.2-6.56-9.51-7.22c-1.31-0.66,7.22-1.31,7.22-1.31s-3.94-2.62-4.92-2.95c-0.98-0.33-5.25-5.9-5.25-5.9l6.23-1.64
	c0,0-7.55-4.26-9.84-5.9c-2.3-1.64-6.56-11.15-6.56-11.15l7.55,2.95c0,0-8.2-14.73-13.65-24.45c1.1-1.74,29.57-11.46,29.57-11.46
	s6.67-34,8.67-39.33c1.12-3,11.57-12.9,21.54-21.26l60.8-26.77c-0.34,1.62-0.67,2.86-1.01,3.36c-1.33,2-13.33,6.67-13.33,6.67
	l-4.44,16.64l5.84-2.16l3.93-6.48l17.33-5.33l6.67-14.67l25.33-23.33l1.25-41.8l56.77-25.13c0.65-0.29,1.26-0.66,1.83-1.07
	l0.82,4.67l-8.67,8c0,0-17.55,54.76-21.24,67.92l0.64-0.24l0.05,1.08c6.26-9.62,30.55-50.76,30.55-50.76l36-17.33l23.11-90.52
	l70.68,84.64c-3.25,5.17-7.8,10.54-7.8,10.54l-24,18l-2.29,3.91l31.83-11.75l0.74,16.39l8.72,1.45l18.48-26.61l38.48,13.7
	c0.37,0.74,0.75,1.48,1.11,2.23l-22.4,39.34l13.24,25.94c-1.55,3.01-11.96,24.07-11.96,24.07L492.56,283.44z M225.54,334.72
	l-26.65,9.84l-2.6-57.88l13.14-4.85l2.09,46.58l13.51-4.99L225.54,334.72z M259.61,311.76c0.38-2.31,0.5-4.97,0.36-8l-0.14-3.09
	l-13.29,4.91c0.06,0.18,0.14,1.33,0.23,3.46c0.05,1.09,0.06,2.01,0.05,2.75c-0.02,0.74-0.1,1.62-0.24,2.62
	c-0.14,1-0.43,1.83-0.86,2.49c-0.43,0.66-1,1.13-1.72,1.39c-0.7,0.26-1.28,0.31-1.76,0.15c-0.48-0.16-0.83-0.52-1.05-1.09
	c-0.23-0.57-0.39-1.15-0.5-1.74c-0.1-0.59-0.17-1.32-0.21-2.19c-0.01-0.29-0.03-0.71-0.04-1.26c-0.01-0.55-0.02-0.94-0.03-1.19
	l-0.34-7.63l19.41-7.17c0.02-1.88-0.09-5.27-0.31-10.19l-0.18-3.96c-0.46-10.32-6.07-13.49-16.82-9.52
	c-5.3,1.96-9.37,4.81-12.2,8.55c-2.83,3.74-4.13,8.12-3.91,13.13l0.99,21.91c0.06,1.36,0.16,2.58,0.3,3.66
	c0.14,1.08,0.38,2.22,0.72,3.43c0.34,1.2,0.78,2.23,1.3,3.07c0.52,0.84,1.2,1.61,2.06,2.29c0.85,0.68,1.85,1.14,2.98,1.37
	c1.14,0.23,2.52,0.25,4.16,0.05c1.64-0.2,3.45-0.66,5.44-1.4c3.36-1.24,6.14-2.7,8.34-4.37c2.2-1.67,3.87-3.59,5-5.74
	C258.48,316.3,259.23,314.07,259.61,311.76z M239.55,292.83c-0.07-1.01-0.12-1.77-0.14-2.28c-0.05-1.07-0.05-1.98-0.01-2.75
	c0.04-0.77,0.16-1.54,0.35-2.33c0.19-0.79,0.52-1.44,0.97-1.97c0.46-0.53,1.03-0.92,1.73-1.17c1.99-0.73,3.08,0.86,3.25,4.78
	l0.25,5.67l-6.27,2.32C239.67,294.6,239.62,293.84,239.55,292.83z M262.23,267.91l2.05-0.76l-0.52-11.59l12.99-4.8l0.52,11.59
	l2.39-0.88l0.45,9.92l-2.39,0.88l1.38,30.67c0.02,0.46,0.05,0.82,0.09,1.08c0.04,0.26,0.1,0.52,0.19,0.8
	c0.09,0.28,0.24,0.44,0.46,0.5c0.22,0.05,0.49,0.02,0.81-0.1c0.32-0.12,0.65-0.29,0.96-0.5l0.4,8.87c-1.86,1.33-4.23,2.52-7.09,3.58
	c-1.44,0.53-2.69,0.8-3.74,0.81c-1.05,0.01-1.87-0.16-2.47-0.49c-0.6-0.33-1.08-0.87-1.46-1.6c-0.37-0.74-0.62-1.46-0.74-2.18
	c-0.12-0.72-0.2-1.56-0.25-2.53l-1.53-34.08l-2.05,0.76L262.23,267.91z M318.36,285c0.23,5.21-1.1,9.71-4,13.5
	c-2.9,3.79-6.94,6.65-12.12,8.56c-11.05,4.08-16.82,0.65-17.31-10.3l-0.12-4.35l13.36-4.93l0.36,6.37c0.04,0.87,0.18,1.55,0.42,2.04
	c0.24,0.49,0.55,0.79,0.93,0.89c0.38,0.1,0.73,0.14,1.05,0.09c0.31-0.04,0.67-0.14,1.07-0.28c1.79-0.66,2.62-2.41,2.5-5.24
	c-0.03-0.73-0.07-1.25-0.11-1.57c-0.04-0.32-0.15-0.77-0.35-1.35c-0.19-0.58-0.48-1.05-0.86-1.4c-0.38-0.35-0.93-0.75-1.65-1.2
	c-0.72-0.45-1.61-0.87-2.69-1.26l-7.37-2.71c-1.6-0.59-2.9-1.26-3.9-2.01c-1.01-0.75-1.76-1.65-2.25-2.72
	c-0.49-1.06-0.82-2.06-0.99-3c-0.17-0.94-0.29-2.18-0.36-3.73c-0.13-2.79,0.59-5.5,2.14-8.14c1.55-2.64,3.53-4.89,5.94-6.74
	c2.41-1.85,5.04-3.3,7.91-4.36c5.25-1.94,9.33-2.13,12.25-0.57c2.92,1.56,4.5,5.04,4.74,10.44l0.05,1.02l-13.74,5.07l-0.17-2.04
	c-0.02-0.48-0.08-0.95-0.18-1.41c-0.1-0.46-0.26-0.91-0.48-1.36c-0.22-0.45-0.54-0.76-0.95-0.92c-0.41-0.17-0.89-0.15-1.44,0.05
	c-0.92,0.34-1.61,0.85-2.07,1.54c-0.46,0.69-0.67,1.49-0.63,2.41c0.09,1.94,0.95,3.18,2.6,3.73l8.51,2.84
	c1.7,0.58,3.17,1.3,4.42,2.17c1.25,0.87,2.21,1.73,2.87,2.58c0.66,0.85,1.2,1.83,1.61,2.93c0.42,1.1,0.68,2.03,0.79,2.77
	C318.24,283.18,318.32,284.04,318.36,285z M338.91,249.83c-0.12-2.74,0.14-5.26,0.8-7.57c0.65-2.31,1.5-4.22,2.53-5.72
	c1.03-1.5,2.32-2.87,3.86-4.1c1.54-1.23,2.94-2.18,4.22-2.83c1.27-0.66,2.66-1.26,4.15-1.81c1.84-0.68,3.52-1.17,5.02-1.47
	c1.5-0.3,2.81-0.38,3.92-0.25c1.11,0.13,2.08,0.38,2.94,0.74c0.85,0.36,1.57,0.94,2.15,1.72c0.58,0.78,1.06,1.59,1.44,2.42
	c0.38,0.83,0.69,1.89,0.92,3.17c0.23,1.28,0.41,2.49,0.52,3.63c0.11,1.14,0.21,2.5,0.28,4.07l-12.54,4.63l-0.21-4.58
	c-0.04-0.92-0.18-1.65-0.4-2.18c-0.23-0.53-0.53-0.86-0.9-0.98c-0.37-0.12-0.71-0.17-1.01-0.14c-0.3,0.03-0.64,0.11-1.01,0.25
	c-0.75,0.28-1.35,0.6-1.8,0.96c-0.45,0.36-0.8,0.74-1.05,1.13c-0.25,0.39-0.42,0.99-0.51,1.79c-0.09,0.81-0.13,1.56-0.13,2.24
	c0,0.69,0.04,1.76,0.11,3.21l1.01,22.38c0.04,0.85,0.1,1.55,0.19,2.11c0.09,0.56,0.26,1.14,0.51,1.73c0.25,0.6,0.64,0.98,1.17,1.14
	c0.53,0.16,1.19,0.1,1.98-0.2c1.32-0.49,2.17-1.31,2.56-2.48c0.39-1.17,0.53-2.88,0.43-5.13l-0.3-6.69l-3.51,1.3l-0.45-9.99
	l15.9-5.87l1.52,33.72l-5.11,1.89l-2.46-4.08c-2.17,4.57-5.7,7.76-10.58,9.56c-9.48,3.5-14.49-0.72-15.03-12.66L338.91,249.83z
	 M379.07,278.03l-2.6-57.88l26.28-9.7l0.5,11.23l-12.92,4.77l0.51,11.3l12.39-4.58l0.49,10.86l-12.39,4.58l0.59,13.19l13.77-5.09
	l0.51,11.3L379.07,278.03z M406.65,220.34l-0.5-11.15l28.74-10.61l0.5,11.15l-7.8,2.88l2.1,46.72l-13.14,4.85l-2.1-46.72
	L406.65,220.34z M252.62,419.51l0.93,20.68l-48.79,18.02l-4.76-105.95l24.05-8.88l3.83,85.27L252.62,419.51z M314.37,337.34
	c-0.4-8.82-3.15-14.76-8.27-17.81c-5.12-3.05-12.73-2.77-22.85,0.83c-9.83,3.77-17.09,8.98-21.77,15.65
	c-4.68,6.66-6.82,14.41-6.42,23.23l2.27,50.48c0.19,4.3,0.93,8.01,2.2,11.12c1.27,3.11,3.11,5.63,5.51,7.53
	c2.4,1.91,5.58,2.9,9.55,2.97c3.96,0.07,8.61-0.95,13.93-3.05c5.06-1.73,9.51-4.08,13.34-7.02c3.83-2.95,6.82-6.21,8.97-9.8
	c2.15-3.59,3.71-7.35,4.67-11.29c0.96-3.94,1.34-8.06,1.15-12.36L314.37,337.34z M292.35,399.19c-0.04,1.08-0.17,1.97-0.37,2.67
	c-0.2,0.71-0.48,1.47-0.83,2.3c-0.36,0.83-0.86,1.53-1.5,2.11c-0.65,0.58-1.4,1.02-2.27,1.34c-0.96,0.35-1.8,0.47-2.52,0.36
	c-0.72-0.12-1.31-0.47-1.75-1.08c-0.44-0.6-0.81-1.2-1.09-1.8c-0.28-0.59-0.49-1.43-0.63-2.5c-0.14-1.07-0.24-1.9-0.28-2.46
	c-0.05-0.57-0.1-1.34-0.14-2.32l-1.91-42.57c-0.01-0.13-0.01-0.27-0.02-0.4c-0.01-0.13-0.01-0.29-0.02-0.47
	c-0.05-1.11-0.09-1.9-0.11-2.36c-0.02-0.47-0.01-1.26,0.03-2.38c0.04-1.12,0.19-2.01,0.44-2.66c0.25-0.66,0.56-1.4,0.94-2.24
	c0.38-0.84,0.91-1.54,1.61-2.12c0.69-0.57,1.52-1.03,2.47-1.39c0.68-0.25,1.3-0.4,1.86-0.45c0.55-0.05,1.02,0.05,1.4,0.29
	c0.38,0.24,0.72,0.48,1,0.71c0.29,0.23,0.53,0.64,0.72,1.22c0.19,0.58,0.35,1.07,0.48,1.44c0.13,0.38,0.23,0.95,0.29,1.72
	c0.06,0.77,0.11,1.35,0.15,1.74c0.04,0.39,0.07,0.99,0.08,1.8c0.01,0.81,0.02,1.34,0.04,1.61l1.91,42.57
	c0.01,0.13,0.01,0.31,0.02,0.53c0.04,0.98,0.07,1.74,0.07,2.31C292.41,397.3,292.39,398.12,292.35,399.19z M383.37,360.82
	c0.17,3.73,0.07,7.2-0.3,10.42c-0.37,3.22-1.12,6.48-2.27,9.76c-1.15,3.29-2.72,6.26-4.71,8.91c-1.99,2.65-4.61,5.14-7.86,7.47
	c-3.25,2.33-7.07,4.3-11.44,5.91c-11.16,4.12-19.23,4.58-24.22,1.37c-4.98-3.21-7.71-10-8.18-20.38l-0.47-10.38l23.78-8.78
	l0.43,9.51c0.31,6.83,2.37,9.54,6.2,8.12c1.78-0.66,3.15-1.84,4.11-3.55c0.97-1.71,1.4-3.65,1.3-5.82
	c-0.13-2.84-0.63-5.08-1.52-6.74c-0.89-1.66-2.18-3.06-3.87-4.22c-1.7-1.15-4.46-2.6-8.29-4.34l-10.57-4.82
	c-8.51-3.84-12.96-10.09-13.35-18.74c-0.42-9.4,1.73-17.31,6.47-23.72c4.74-6.41,11.43-11.22,20.09-14.42
	c0.23-0.08,0.43-0.16,0.61-0.23c0.18-0.07,1.39-0.51,3.62-1.34c2.23-0.82,5.12-1.38,8.68-1.68c3.55-0.3,6.75,0.21,9.59,1.53
	c2.84,1.32,5.03,3.8,6.59,7.44c1.55,3.64,2.46,8.45,2.73,14.44l-24.4,9.01l-0.42-6.33c-0.1-1.18-0.67-2.05-1.72-2.61
	c-1.04-0.56-2.18-0.61-3.41-0.16c-1.6,0.59-2.93,1.57-4,2.93c-1.07,1.37-1.58,2.8-1.51,4.31c0.14,3.02,2.54,5.46,7.21,7.35
	l15.07,6.07c2.45,0.99,4.6,2.12,6.44,3.4c1.84,1.28,3.32,2.68,4.43,4.18c1.11,1.51,2.02,2.91,2.72,4.2c0.71,1.3,1.23,2.79,1.56,4.5
	c0.33,1.7,0.54,3,0.63,3.89C383.22,358.17,383.3,359.35,383.37,360.82z M436.64,264.87l0.92,20.42l-14.28,5.27l3.85,85.54
	l-24.05,8.88l-3.85-85.54l-14.28,5.27l-0.92-20.42L436.64,264.87z" />
</svg>
