<?xml version="1.0" encoding="utf-8"?>
<!-- Generator: Adobe Illustrator 26.5.0, SVG Export Plug-In . SVG Version: 6.00 Build 0)  -->
<svg version="1.1" id="Layer_1" xmlns="http://www.w3.org/2000/svg" xmlns:xlink="http://www.w3.org/1999/xlink" x="0px" y="0px"
	 viewBox="0 0 24 24" style="enable-background:new 0 0 24 24;" xml:space="preserve">
<style type="text/css">
	.st0{fill-rule:evenodd;clip-rule:evenodd;}
</style>
<path class="st0" d="M11.61,22.08c5.52,0,10-4.48,10-10c0-5.52-4.48-10-10-10c-5.52,0-10,4.48-10,10
	C1.61,17.6,6.09,22.08,11.61,22.08z M13.86,6.21c-0.72,0-0.95-0.38-1.39-1.13l-1.11,0.38c-6.52,1.51-4.98,6.02-3.24,7.15
	c0.25,0.39,0.39,0.85,0.45,1.34c0.78-0.09,1.76-0.14,2.81-0.11c0.67,0.02,1.38,0.09,2.09,0.21c-0.64-1.51,1.28-3.73,3.43-5.96
	c0.59-0.61-0.09-1.88-1.09-1.88C15.29,6.21,13.86,6.21,13.86,6.21z M7.64,19c0.32-0.91,0.89-2.53,0.97-4.05
	c0.74-0.09,1.71-0.15,2.74-0.11c1.12,0.04,2.29,0.19,3.32,0.53c0.79,0.92,1.5,2.01,1.5,3.27c-1.09,1-4.79,2.56-8.56,0.45L7.64,19z"
	/>
</svg>
