<svg height="100" viewBox="0 0 100 100" width="100" xmlns="http://www.w3.org/2000/svg">
    <g fill="none" fill-rule="evenodd">
        <path
            d="M92.857 44.76C92.857 71.738 54.687 100 50 100c-4.688 0-42.857-28.63-42.857-55.24C7.143 25.3 26.33 9.524 50 9.524c23.67 0 42.857 15.775 42.857 35.236"
            fill="#23A0A0" />
        <circle cx="50" cy="42.857" fill="#09B8B8" r="42.857" />
        <circle cx="50" cy="42.857" fill="#FFF" r="38.095" />
    </g>
    <g fill="none" fill-rule="evenodd" transform="translate(15.0, 7.0)">
        <path
            d="M48.779 40.233L23.962 54.082v8.279c0 .99.356 1.685.925 2.014.57.324 1.359.28 2.227-.216L45.628 53.91c.867-.494 1.657-1.351 2.227-2.327.571-.978.924-2.077.924-3.068v-8.282z"
            fill="#EBEBEB" />
        <path
            d="M23.962 54.081l24.817-13.848V9.925c0-.99-.353-1.689-.924-2.014-.57-.328-1.36-.282-2.227.214L27.114 18.37c-.868.5-1.656 1.351-2.227 2.325l-.003.007c-.566.974-.922 2.075-.922 3.068V54.08z"
            fill="#FF5E49" />
        <path
            d="M47.855 7.91l-3.962-2.262-.224-.105-.243-.07-.261-.032-.273.005-.29.043-.302.083-.314.124-.32.163L23.15 16.108l-.322.204-.311.233-.303.26-.288.285-.276.31-.26.33-.242.344-.224.358-.002.008-.203.37-.181.38-.159.386-.132.39-.105.392-.077.387-.048.384-.017.378V51.82l3.962 2.263V23.77l.017-.377.048-.383.08-.39.102-.39.135-.39.156-.387.183-.38.201-.37.004-.008.224-.359.242-.344.26-.33.274-.309.29-.284.303-.262.312-.232.322-.205L45.628 8.122l.322-.164.313-.123.302-.084.288-.042.276-.004.26.032.242.07z"
            fill="#E94D3A" />
        <path
            d="M23.962 54.081L20 51.82v8.279l.017.356.049.33.075.3.107.27.134.237.159.207.18.173.203.14 3.964 2.264-.203-.14-.183-.175-.158-.206-.132-.237-.106-.27-.08-.3-.047-.33-.017-.356z"
            fill="#BBB8B8" />
        <path
            d="M24.973 20.56l-3.964-2.263-.085.135-.002.008-.203.37-.18.38-.16.386-.132.39-.105.392-.077.39-.048.381-.017.378v30.312l3.962 2.262V23.77l.017-.377.048-.383.08-.39.102-.39.135-.39.156-.387.183-.38.201-.37.005-.006z"
            fill="#AA3838" />
        <path
            d="M40.737 29.035v2.894l-9.06 5.172c.098-1.148.395-2.358.892-3.628.497-1.269 1.463-3.115 2.898-5.537 1.136-1.926 1.835-3.189 2.097-3.789.389-.88.583-1.65.583-2.316 0-.708-.161-1.152-.482-1.33-.321-.18-.744-.119-1.267.18-1.144.653-1.76 1.851-1.85 3.595L31.98 25.43c.157-1.745.622-3.226 1.397-4.444a8.71 8.71 0 0 1 3.088-2.928c1.413-.807 2.478-.96 3.195-.461.718.498 1.077 1.335 1.077 2.51 0 .663-.092 1.36-.274 2.09a14.43 14.43 0 0 1-.848 2.365c-.38.85-1.016 2.019-1.906 3.508-.83 1.398-1.354 2.306-1.574 2.728-.221.421-.398.81-.533 1.168l5.135-2.932zM31.6 43.824v-4.78l1.196-.684.72 2.853.716-3.673 1.202-.686v4.78l-.745.426v-3.766l-.79 4.217-.77.44-.784-3.319v3.766zM36.2 41.197v-4.78l.797-.456v4.781zM37.772 40.3v-4.78l.778-.445 1.623 2.266v-3.192l.745-.426v4.78l-.804.46-1.596-2.206v3.117z"
            fill="#FFF" />
    </g>
    <g fill="none" visibility="visible">
        <circle cx="84" cy="16" fill="#FF0000" r="16" />
        <text style="font-size:24;stroke:#FFFFFF;fill:#FFFFFF" text-anchor="middle" x="84" y="24">88</text>
        <!-- looks like 1/3 font-size is a good y-offset. Here y = 24 = (cy == 16) + (font-size == 24) / 3 -->
    </g>
</svg>
