<svg height="100" viewBox="0 0 100 100" width="100" xmlns="http://www.w3.org/2000/svg">
    <g fill="none" fill-rule="evenodd">
        <path
            d="M92.857 44.76C92.857 71.738 54.687 100 50 100c-4.688 0-42.857-28.63-42.857-55.24C7.143 25.3 26.33 9.524 50 9.524c23.67 0 42.857 15.775 42.857 35.236"
            fill="#23A0A0" />
        <circle cx="50" cy="42.857" fill="#09B8B8" r="42.857" />
        <circle cx="50" cy="42.857" fill="#FFF" r="38.095" />
    </g>
    <g fill="none" fill-rule="evenodd" transform="translate(15.0, 7.0)">
        <path
            d="M32.954 5.879c-5.762 9.01-13.977 18.075-17.323 27.294C14.519 36.269 14 39.379 14 42.378c0 4.56 1.196 8.856 3.31 12.469 2.126 3.598 5.17 6.499 8.843 8.27C28.665 64.331 31.48 65 34.5 65c3.02 0 5.835-.67 8.36-1.883 3.66-1.771 6.704-4.672 8.83-8.27C53.804 51.234 55 46.939 55 42.378c0-2.999-.52-6.109-1.643-9.205-3.334-9.219-11.56-18.285-17.31-27.294C35.671 5.307 35.127 5 34.5 5c-.628 0-1.172.307-1.546.879"
            fill="#44ABC7" />
        <path
            d="M33.243 6.187c-4.794 10.413-14.42 25.17-14.42 34.182 0 4.008 1.065 7.764 2.936 10.918 1.87 3.139 4.562 5.69 7.778 7.231a16.794 16.794 0 0 0 7.375 1.682c2.678 0 5.16-.603 7.374-1.682 3.241-1.541 5.92-4.092 7.791-7.231C53.936 48.133 55 44.377 55 40.369c0-2.62-.465-5.34-1.455-8.059-3.107-8.52-11.35-17.784-17.025-26.418-.428-.63-1.027-.953-1.712-.883-.685.057-1.247.477-1.565 1.178"
            fill="#73BCE3" />
        <path d="M50.152 27.662c-5.234-7.866-13.24-5.334-13.24 4.268 0 5.675 4.028 10.27 8.988 10.27 8.13 0 7.931-9.019 4.252-14.538" fill="#9DD6F5" />
    </g>
</svg>
