<svg height="100" viewBox="0 0 100 100" width="100" xmlns="http://www.w3.org/2000/svg">
    <g fill="none" fill-rule="evenodd">
        <path
            d="M92.857 44.76C92.857 71.738 54.687 100 50 100c-4.688 0-42.857-28.63-42.857-55.24C7.143 25.3 26.33 9.524 50 9.524c23.67 0 42.857 15.775 42.857 35.236"
            fill="#23A0A0" />
        <circle cx="50" cy="42.857" fill="#09B8B8" r="42.857" />
        <circle cx="50" cy="42.857" fill="#FFF" r="38.095" />
    </g>
    <g fill="none" fill-rule="evenodd" transform="translate(15.0, 7.0)">
        <path
            d="M40.409 5l-.94.055-.962.12-.985.189-1.008.258-1.026.328-1.043.399-1.065.469-1.076.544-1.09.614-1.093.682-1.077.734-1.062.793-1.044.841-1.025.89-1.006.938-.985.98-.964 1.021-.94 1.063-.914 1.1-.887 1.135-.863 1.164-.832 1.196-.802 1.223-.769 1.25-.737 1.27-.701 1.294-.668 1.31-.631 1.324-.591 1.339-.551 1.35-.51 1.357-.47 1.365-.426 1.366-.38 1.371-.334 1.368-.284 1.366-.236 1.36-.188 1.35-.136 1.342-.081 1.328L10 45.759l.027 1.28.081 1.23.136 1.178.188 1.131.236 1.078.284 1.025.335.972.38.918.425.862.47.808.51.752.55.692.592.637 1.299 1.03 5.303 3.095h.427l-1.019-.843-.552-.694-.512-.75-.467-.809-.426-.862-.378-.918-.335-.972-.286-1.027-.238-1.075-.184-1.13-.136-1.18-.082-1.231-.027-1.278.027-1.312.082-1.33.136-1.341.184-1.352.238-1.36.286-1.364.335-1.369.378-1.369.426-1.368.467-1.364.512-1.36.552-1.348.592-1.34.628-1.325.668-1.31.702-1.29.738-1.271.77-1.25.801-1.224.832-1.194.86-1.166.89-1.135.915-1.098.94-1.061.962-1.026.986-.982 1.006-.936 1.026-.888 1.043-.844 1.063-.789 1.077-.738 1.092-.68 1.09-.616 1.077-.541 1.062-.47 1.045-.397 1.026-.328 1.007-.26.985-.187.963-.122.94-.053.915.014.887.078.86.144.833.208.8.274-6.6-3.92-.801-.274-.832-.206-.861-.146-.888-.078z"
            fill="#13779B" />
        <path
            d="M50.515 7.834l-5.707-2.151-.787-.26-.816-.197-.85-.138-.872-.075-.9-.013-.924.052-.947.114-.97.182-.99.244-1.01.312-1.026.38-1.047.446-1.06.52-1.072.584-1.075.65-1.06.698-1.044.755-1.027.801-1.009.847-.99.894-.97.932-.948.974-.923 1.011-.9 1.048-.873 1.078-.849 1.111-.819 1.139-.788 1.165-.756 1.189-.727 1.21-.689 1.232-.657 1.245-.62 1.263-.582 1.275-.542 1.284-.503 1.294-.46 1.3-.42 1.301-.132.469 6.493 3.728.133-.464.42-1.303.46-1.298.502-1.295.544-1.284.581-1.276.619-1.262.657-1.248.69-1.229.727-1.21.757-1.189.788-1.167.818-1.136.847-1.111.875-1.08.9-1.046.924-1.013.947-.974.97-.935.99-.891 1.01-.847 1.027-.803 1.045-.751 1.059-.702 1.074-.649 1.073-.586 1.06-.515 1.044-.448 1.027-.378 1.011-.313.99-.247.97-.178.947-.118.924-.049.9.014.873.074.847.137.818.199z"
            fill="#188BB5" />
        <path
            d="M14.35 48.621c-.243-14.011 9.44-31.219 21.622-38.437 12.18-7.215 22.252-1.716 22.496 12.297.243 14.005-9.434 31.206-21.614 38.422-12.182 7.22-22.26 1.723-22.504-12.282z"
            fill="#279CC6" />
        <path
            d="M37.394 20.587l-.926.533c-.297.17-.495.516-.495.78v26.292c0 .296.231.36.495.209l.926-.533c.297-.17.495-.516.495-.78V20.796c0-.264-.198-.38-.495-.209M45.953 15.627c1.534-.882 2.777-.358 2.777 1.17s-1.243 3.483-2.777 4.366c-1.533.882-2.776.359-2.776-1.17s1.243-3.483 2.776-4.366M52.497 25.37l-2.677-4.094c-.495-.736-1.553-.819-2.71-.153l-2.346 1.35c-1.157.666-2.215 1.934-2.71 3.274l-2.677 7.174c-.297.797-.033 1.37.595 1.273.628-.065 1.355-.747 1.619-1.525l1.719-4.614v1.746c-.397 1.777-1.124 4.37-2.149 6.508-.396.822-.132 1.46.53 1.31.264-.053.594-.177.958-.32l-.827 6.307c-.099.848.43 1.268 1.223.91l.199-.114c.693-.399 1.321-1.288 1.42-2.037l.86-6.491.463-.266.462-.267.86 5.503c.099.667.727.8 1.42.4l.199-.113c.793-.556 1.322-1.585 1.223-2.319l-.826-5.356c.363-.275.66-.512.958-.782.66-.612.925-1.587.529-1.92-1.025-.925-1.752-2.681-2.148-4.034v-1.747l1.718 2.636c.198.314.661.311 1.124.045.165-.096.363-.243.529-.437.495-.548.76-1.426.462-1.847M27.909 26.014c1.533-.882 2.776-.36 2.776 1.17 0 1.528-1.243 3.482-2.776 4.365-1.533.882-2.777.359-2.777-1.17 0-1.528 1.244-3.483 2.777-4.365M31.808 31.644c-.495-.736-1.553-.82-2.71-.154l-2.346 1.35c-1.156.667-2.214 1.934-2.71 3.274l-2.677 7.175c-.297.797-.033 1.37.595 1.272a1.65 1.65 0 0 0 .529-.173c.462-.266.892-.777 1.123-1.338l1.719-4.614v1.285c0 1.845-.132 3.8-.397 5.764l-1.123 8.554c-.1.848.43 1.269 1.223.91l.198-.113c.694-.4 1.321-1.289 1.42-2.038l1.124-8.554c.067-.5.133-1.032.166-1.512.066.457.1.899.165 1.322l1.124 7.26c.099.669.727.801 1.421.402l.198-.114c.793-.555 1.322-1.585 1.223-2.319l-1.124-7.26a34.066 34.066 0 0 1-.396-5.308v-1.284l1.718 2.635c.298.455 1.025.267 1.62-.34.628-.657.859-1.515.594-1.956l-2.677-4.126z"
            fill="#FFF" />
    </g>
</svg>
