<svg style="background: rgba(0, 0, 0, 0);" height="122.021240234375px" preserveAspectRatio="xMidYMid"
    viewBox="-246.667529296875 13.9893798828125 993.33505859375 122.021240234375" width="993.33505859375px" xmlns="http://www.w3.org/2000/svg">
    <defs>
        <linearGradient id="editing-outline-gradient" x1="-0.41354545764260087" x2="1.4135454576426008" y1="0.09326335692419985" y2="0.9067366430758002">
            <stop offset="0" stop-color="#ee4208"></stop>
            <stop offset="1" stop-color="#4139ff"></stop>
        </linearGradient>
        <filter height="300%" id="editing-outline" width="300%" x="-100%" y="-100%">
            <feMorphology in="SourceGraphic" operator="dilate" radius="1" result="outline"></feMorphology>
            <feComposite in="outline" in2="SourceAlpha" operator="out"></feComposite>
        </filter>
    </defs>
    <g filter="url(#editing-outline)">
        <g transform="translate(-108.05000612139702, 104.46218872070312)">
            <path
                d="M26.11-42.69L26.11-42.69L26.11-42.69Q41.79-42.69 41.79-31.62L41.79-31.62L41.79-31.62Q41.79-25.54 37.89-21.89L37.89-21.89L37.89-21.89Q34.05-18.24 27.33-18.24L27.33-18.24L27.33-18.24Q24.19-18.24 21.76-20.03L21.76-20.03L21.76-20.03Q20.61-20.80 19.84-21.82L19.84-21.82L19.84-21.82Q24.51-21.82 26.98-24.67L26.98-24.67L26.98-24.67Q29.44-27.52 29.44-33.09L29.44-33.09L29.44-33.09Q29.44-38.66 23.94-38.66L23.94-38.66L22.40-38.66L22.40-38.66Q22.02-38.66 21.70-38.59L21.70-38.59L14.34 0L0.45 0L8.32-41.92L8.32-41.92Q15.17-42.56 19.14-42.62L19.14-42.62L19.14-42.62Q23.10-42.69 26.11-42.69ZM56.06 1.28L56.06 1.28L56.06 1.28Q41.98 1.28 41.98-11.97L41.98-11.97L41.98-11.97Q41.98-21.38 47.17-27.46L47.17-27.46L47.17-27.46Q52.67-33.92 62.21-33.92L62.21-33.92L62.21-33.92Q69.12-33.92 72.64-30.72L72.64-30.72L72.64-30.72Q76.16-27.52 76.16-20.80L76.16-20.80L76.16-20.80Q76.16-10.56 70.66-4.61L70.66-4.61L70.66-4.61Q65.28 1.28 56.06 1.28ZM57.73-26.56L57.73-26.56L57.73-26.56Q56.96-24.83 56.35-22.24L56.35-22.24L56.35-22.24Q55.74-19.65 54.98-15.55L54.98-15.55L54.98-15.55Q54.21-11.46 54.21-6.40L54.21-6.40L54.21-6.40Q54.21-4.74 54.75-3.65L54.75-3.65L54.75-3.65Q55.30-2.56 56.77-2.56L56.77-2.56L56.77-2.56Q58.24-2.56 59.17-3.26L59.17-3.26L59.17-3.26Q60.10-3.97 60.80-5.63L60.80-5.63L60.80-5.63Q62.08-8.58 63.10-14.05L63.10-14.05L63.10-14.05Q64.13-19.52 64.22-21.89L64.22-21.89L64.22-21.89Q64.32-24.26 64.32-26.02L64.32-26.02L64.32-26.02Q64.32-27.78 63.81-28.93L63.81-28.93L63.81-28.93Q63.30-30.08 61.86-30.08L61.86-30.08L61.86-30.08Q60.42-30.08 59.46-29.18L59.46-29.18L59.46-29.18Q58.50-28.29 57.73-26.56ZM127.68-10.69L127.68-10.69Q123.46-4.86 119.39-1.79L119.39-1.79L119.39-1.79Q115.33 1.28 111.14 1.28L111.14 1.28L111.14 1.28Q106.94 1.28 105.47 0.45L105.47 0.45L105.47-13.63L105.47-13.63Q101.82-3.90 95.30-0.13L95.30-0.13L95.30-0.13Q92.93 1.28 90.69 1.28L90.69 1.28L90.69 1.28Q86.40 1.28 84.54 0.45L84.54 0.45L84.54 0.45Q84.10-14.21 83.71-18.27L83.71-18.27L83.71-18.27Q83.33-22.34 83.01-24.83L83.01-24.83L83.01-24.83Q82.37-29.82 80.19-31.87L80.19-31.87L80.19-31.87Q82.94-33.92 86.78-33.92L86.78-33.92L86.78-33.92Q94.21-33.92 95.23-24.70L95.23-24.70L95.23-24.70Q95.49-22.53 95.49-20.22L95.49-20.22L95.49-20.22Q95.49-16.77 94.72-4.74L94.72-4.74L94.72-4.74Q96.26-5.44 97.89-7.97L97.89-7.97L97.89-7.97Q99.52-10.50 100.86-13.95L100.86-13.95L100.86-13.95Q103.87-21.95 103.87-28.86L103.87-28.86L103.87-28.86Q103.87-29.95 103.58-31.10L103.58-31.10L103.58-31.10Q103.30-32.26 102.98-32.58L102.98-32.58L102.98-32.58Q105.22-33.92 108.64-33.92L108.64-33.92L108.64-33.92Q112.06-33.92 113.70-31.58L113.70-31.58L113.70-31.58Q115.33-29.25 115.78-24.96L115.78-24.96L115.78-24.96Q116.29-19.52 116.29-16.26L116.29-16.26L116.29-16.26Q116.29-11.71 115.84-4.99L115.84-4.99L115.84-4.99Q119.04-7.30 121.66-14.85L121.66-14.85L121.66-14.85Q124.29-22.40 124.29-27.78L124.29-27.78L124.29-27.78Q124.29-30.14 123.90-31.55L123.90-31.55L123.90-31.55Q126.02-33.92 129.66-33.92L129.66-33.92L129.66-33.92Q131.90-33.92 133.54-32.70L133.54-32.70L133.54-32.70Q135.17-31.49 135.17-29.22L135.17-29.22L135.17-29.22Q135.17-26.94 134.50-24.51L134.50-24.51L134.50-24.51Q133.82-22.08 132.74-19.58L132.74-19.58L132.74-19.58Q130.62-14.59 127.68-10.69L127.68-10.69ZM162.82-10.82L162.82-10.82L162.82-10.82Q164.42-9.73 164.42-7.33L164.42-7.33L164.42-7.33Q164.42-4.93 163.20-3.39L163.20-3.39L163.20-3.39Q161.98-1.86 160-0.83L160-0.83L160-0.83Q155.90 1.28 151.49 1.28L151.49 1.28L151.49 1.28Q147.07 1.28 144.48 0.32L144.48 0.32L144.48 0.32Q141.89-0.64 140.16-2.43L140.16-2.43L140.16-2.43Q136.77-5.82 136.77-12.03L136.77-12.03L136.77-12.03Q136.77-21.70 142.02-27.58L142.02-27.58L142.02-27.58Q147.65-33.92 157.44-33.92L157.44-33.92L157.44-33.92Q163.52-33.92 166.53-31.36L166.53-31.36L166.53-31.36Q168.77-29.44 168.77-26.30L168.77-26.30L168.77-26.30Q168.77-15.04 149.31-15.04L149.31-15.04L149.31-15.04Q149.06-13.38 149.06-11.97L149.06-11.97L149.06-11.97Q149.06-9.02 150.37-7.90L150.37-7.90L150.37-7.90Q151.68-6.78 154.11-6.78L154.11-6.78L154.11-6.78Q156.54-6.78 159.14-7.90L159.14-7.90L159.14-7.90Q161.73-9.02 162.82-10.82ZM149.76-17.79L149.76-17.79L149.76-17.79Q154.30-17.79 156.93-20.61L156.93-20.61L156.93-20.61Q159.55-23.30 159.55-27.58L159.55-27.58L159.55-27.58Q159.55-29.06 159.01-29.86L159.01-29.86L159.01-29.86Q158.46-30.66 157.38-30.66L157.38-30.66L157.38-30.66Q156.29-30.66 155.36-30.24L155.36-30.24L155.36-30.24Q154.43-29.82 153.47-28.42L153.47-28.42L153.47-28.42Q151.10-25.22 149.76-17.79ZM190.98-17.98L190.98-17.98L190.98-17.98Q193.28-22.08 193.28-26.24L193.28-26.24L193.28-26.24Q193.28-28.99 191.30-28.99L191.30-28.99L191.30-28.99Q189.76-28.99 188.16-26.37L188.16-26.37L188.16-26.37Q186.50-23.74 185.98-20.35L185.98-20.35L182.66 0L169.41 1.28L175.94-32.64L186.50-33.92L185.34-27.46L185.34-27.46Q188.48-33.92 195.52-33.92L195.52-33.92L195.52-33.92Q199.23-33.92 201.25-32L201.25-32L201.25-32Q203.26-30.08 203.26-26.14L203.26-26.14L203.26-26.14Q203.26-22.21 200.67-19.71L200.67-19.71L200.67-19.71Q198.08-17.22 193.66-17.22L193.66-17.22L193.66-17.22Q191.74-17.22 190.98-17.98ZM230.21-10.82L230.21-10.82L230.21-10.82Q231.81-9.73 231.81-7.33L231.81-7.33L231.81-7.33Q231.81-4.93 230.59-3.39L230.59-3.39L230.59-3.39Q229.38-1.86 227.39-0.83L227.39-0.83L227.39-0.83Q223.30 1.28 218.88 1.28L218.88 1.28L218.88 1.28Q214.46 1.28 211.87 0.32L211.87 0.32L211.87 0.32Q209.28-0.64 207.55-2.43L207.55-2.43L207.55-2.43Q204.16-5.82 204.16-12.03L204.16-12.03L204.16-12.03Q204.16-21.70 209.41-27.58L209.41-27.58L209.41-27.58Q215.04-33.92 224.83-33.92L224.83-33.92L224.83-33.92Q230.91-33.92 233.92-31.36L233.92-31.36L233.92-31.36Q236.16-29.44 236.16-26.30L236.16-26.30L236.16-26.30Q236.16-15.04 216.70-15.04L216.70-15.04L216.70-15.04Q216.45-13.38 216.45-11.97L216.45-11.97L216.45-11.97Q216.45-9.02 217.76-7.90L217.76-7.90L217.76-7.90Q219.07-6.78 221.50-6.78L221.50-6.78L221.50-6.78Q223.94-6.78 226.53-7.90L226.53-7.90L226.53-7.90Q229.12-9.02 230.21-10.82ZM217.15-17.79L217.15-17.79L217.15-17.79Q221.70-17.79 224.32-20.61L224.32-20.61L224.32-20.61Q226.94-23.30 226.94-27.58L226.94-27.58L226.94-27.58Q226.94-29.06 226.40-29.86L226.40-29.86L226.40-29.86Q225.86-30.66 224.77-30.66L224.77-30.66L224.77-30.66Q223.68-30.66 222.75-30.24L222.75-30.24L222.75-30.24Q221.82-29.82 220.86-28.42L220.86-28.42L220.86-28.42Q218.50-25.22 217.15-17.79ZM258.50-33.92L258.50-33.92L258.50-33.92Q260.80-33.92 262.59-33.41L262.59-33.41L262.59-33.41Q262.66-33.66 262.78-34.37L262.78-34.37L263.10-36.35L263.10-36.35Q263.36-37.63 263.74-39.74L263.74-39.74L264.77-44.80L277.50-46.08L270.40-8.96L270.40-8.96Q270.34-8.58 270.34-7.94L270.34-7.94L270.34-6.91L270.34-6.91Q270.34-5.50 271.04-4.45L271.04-4.45L271.04-4.45Q271.74-3.39 272.90-3.39L272.90-3.39L272.90-3.39Q271.62-0.38 267.71 0.90L267.71 0.90L267.71 0.90Q266.37 1.28 264.48 1.28L264.48 1.28L264.48 1.28Q262.59 1.28 260.86 0.29L260.86 0.29L260.86 0.29Q259.14-0.70 258.62-2.37L258.62-2.37L258.62-2.37Q257.60-0.70 255.55 0.29L255.55 0.29L255.55 0.29Q253.50 1.28 250.53 1.28L250.53 1.28L250.53 1.28Q247.55 1.28 245.09 0.51L245.09 0.51L245.09 0.51Q242.62-0.26 241.09-1.92L241.09-1.92L241.09-1.92Q238.27-5.18 238.27-12.61L238.27-12.61L238.27-12.61Q238.27-22.21 243.90-28.03L243.90-28.03L243.90-28.03Q249.54-33.92 258.50-33.92ZM258.05-30.08L258.05-30.08L258.05-30.08Q255.68-30.08 254.40-27.52L254.40-27.52L254.40-27.52Q253.12-24.96 251.81-18.62L251.81-18.62L251.81-18.62Q250.50-12.29 250.50-6.59L250.50-6.59L250.50-6.59Q250.50-2.69 252.80-2.69L252.80-2.69L252.80-2.69Q254.85-2.69 256.29-4.74L256.29-4.74L256.29-4.74Q257.73-6.78 258.30-10.18L258.30-10.18L261.76-28.93L261.76-28.93Q260.42-30.08 258.05-30.08ZM290.69-3.07L290.69-3.07L298.62-44.80L311.62-46.08L309.63-36.29L309.63-36.29Q308.93-33.28 308.03-31.17L308.03-31.17L308.03-31.17Q309.44-32.96 312.51-33.66L312.51-33.66L312.51-33.66Q313.41-33.92 314.50-33.92L314.50-33.92L314.50-33.92Q320.45-33.92 323.71-30.30L323.71-30.30L323.71-30.30Q326.98-26.69 326.98-19.71L326.98-19.71L326.98-19.71Q326.98-10.62 321.79-4.93L321.79-4.93L321.79-4.93Q316.22 1.28 306.11 1.28L306.11 1.28L306.11 1.28Q299.14 1.28 293.89-1.02L293.89-1.02L293.89-1.02Q292.03-1.86 290.69-3.07ZM306.94-22.40L303.55-3.65L303.55-3.65Q304.90-2.50 306.56-2.50L306.56-2.50L306.56-2.50Q308.22-2.50 309.18-3.14L309.18-3.14L309.18-3.14Q310.14-3.78 310.85-5.06L310.85-5.06L310.85-5.06Q312.77-8.51 314.30-19.07L314.30-19.07L314.30-19.07Q314.75-22.08 314.75-25.09L314.75-25.09L314.75-25.09Q314.75-28.10 314.08-29.06L314.08-29.06L314.08-29.06Q313.41-30.02 312.13-30.02L312.13-30.02L312.13-30.02Q308.22-30.02 306.94-22.40L306.94-22.40ZM351.17-7.23L351.17-7.23L351.17-7.23Q347.84-3.78 341.76-3.78L341.76-3.78L341.76-3.78Q334.14-3.78 332.54-9.34L332.54-9.34L332.54-9.34Q332.03-11.01 332.03-12.86L332.03-12.86L332.03-12.86Q332.03-14.72 332.42-16.64L332.42-16.64L335.42-32.64L348.42-33.92L344.90-15.30L344.90-15.30Q344.77-14.46 344.58-13.57L344.58-13.57L344.58-13.57Q344.38-12.67 344.38-11.74L344.38-11.74L344.38-11.74Q344.38-10.82 344.70-10.21L344.70-10.21L344.70-10.21Q345.02-9.60 345.47-9.22L345.47-9.22L345.47-9.22Q346.24-8.70 347.62-8.70L347.62-8.70L347.62-8.70Q348.99-8.70 350.18-10.37L350.18-10.37L350.18-10.37Q351.36-12.03 351.94-14.91L351.94-14.91L355.46-32.64L368.06-33.92L363.26-8.77L363.26-8.77Q360.90 3.52 356.03 8.38L356.03 8.38L356.03 8.38Q353.54 10.88 350.30 11.87L350.30 11.87L350.30 11.87Q347.07 12.86 342.91 12.86L342.91 12.86L342.91 12.86Q336.19 12.86 332.35 10.75L332.35 10.75L332.35 10.75Q328.51 8.64 328.51 5.12L328.51 5.12L328.51 5.12Q328.51 2.50 330.50 0.99L330.50 0.99L330.50 0.99Q332.48-0.51 335.55-0.51L335.55-0.51L335.55-0.51Q338.24-0.51 340.29 0.64L340.29 0.64L340.29 0.64Q341.50 1.34 342.08 2.24L342.08 2.24L342.08 2.24Q340.61 3.52 340.61 5.63L340.61 5.63L340.61 5.63Q340.61 8.45 343.17 8.45L343.17 8.45L343.17 8.45Q347.39 8.45 349.82-1.28L349.82-1.28L349.82-1.28Q350.53-4.16 351.17-7.23ZM410.30-9.86L410.30-9.86L410.30-9.86Q411.52-8.32 411.52-5.34L411.52-5.34L411.52-5.34Q411.52-2.37 409.25-0.54L409.25-0.54L409.25-0.54Q406.98 1.28 403.01 1.28L403.01 1.28L403.01 1.28Q400.70 1.28 397.12 0.77L397.12 0.77L397.12 0.77Q390.08-0.32 388.06-0.32L388.06-0.32L388.06-0.32Q386.05-0.32 385.22-0.22L385.22-0.22L385.22-0.22Q384.38-0.13 383.04 0L383.04 0L390.78-42.24L404.80-42.24L398.40-7.04L398.40-7.04Q399.23-6.91 400.00-6.91L400.00-6.91L401.60-6.91L401.60-6.91Q406.98-6.91 410.30-9.86ZM416.70-9.47L416.70-9.47L416.70-9.47Q416.70-11.97 417.34-15.17L417.34-15.17L422.53-42.24L436.67-42.24L431.55-14.98L431.55-14.98Q430.98-11.97 430.98-9.76L430.98-9.76L430.98-9.76Q430.98-7.55 431.90-6.40L431.90-6.40L431.90-6.40Q432.83-5.25 434.56-5.25L434.56-5.25L434.56-5.25Q436.29-5.25 437.38-5.70L437.38-5.70L437.38-5.70Q438.46-6.14 439.36-7.23L439.36-7.23L439.36-7.23Q441.09-9.41 442.18-14.98L442.18-14.98L447.36-42.24L457.02-42.24L451.90-15.04L451.90-15.04Q450.11-5.95 445.18-2.30L445.18-2.30L445.18-2.30Q440.38 1.28 430.91 1.28L430.91 1.28L430.91 1.28Q423.81 1.28 420.03-1.79L420.03-1.79L420.03-1.79Q416.70-4.48 416.70-9.47ZM471.36 0L457.73 0L465.02-38.91L465.73-42.24L479.42-42.24L471.36 0ZM497.34-3.78L497.34-3.78L497.34-3.78Q495.62 1.28 488.96 1.28L488.96 1.28L488.96 1.28Q484.03 1.28 480.64-4.61L480.64-4.61L480.64-4.61Q477.18-10.50 476.54-20.10L476.54-20.10L476.54-20.10Q483.58-32.96 488.45-38.27L488.45-38.27L488.45-38.27Q493.12-43.33 497.98-43.33L497.98-43.33L497.98-43.33Q500.61-43.33 502.50-41.92L502.50-41.92L502.50-41.92Q504.38-40.51 504.83-38.27L504.83-38.27L504.83-38.27Q502.66-37.38 501.63-36.67L501.63-36.67L501.63-36.67Q499.07-34.75 495.62-30.46L495.62-30.46L489.79-23.49L489.79-23.49Q488.38-21.82 487.81-21.06L487.81-21.06L487.81-21.06Q488.77-15.68 491.65-10.37L491.65-10.37L491.65-10.37Q494.40-5.31 497.34-3.78ZM530.11-9.86L530.11-9.86L530.11-9.86Q531.33-8.32 531.33-5.82L531.33-5.82L531.33-5.82Q531.33-2.37 528.77-0.54L528.77-0.54L528.77-0.54Q526.21 1.28 522.18 1.28L522.18 1.28L522.18 1.28Q519.87 1.28 516.35 0.77L516.35 0.77L516.35 0.77Q509.44-0.32 507.33-0.32L507.33-0.32L507.33-0.32Q505.22-0.32 504.38-0.22L504.38-0.22L504.38-0.22Q503.55-0.13 502.21 0L502.21 0L510.08-42.24L537.66-42.24L537.66-42.24Q537.66-38.34 535.78-36.29L535.78-36.29L535.78-36.29Q533.89-34.24 530.18-34.24L530.18-34.24L530.18-34.24Q526.46-34.24 522.69-35.97L522.69-35.97L520.70-24.77L532.10-24.77L532.10-24.77Q532.10-21.38 530.43-19.49L530.43-19.49L530.43-19.49Q528.77-17.60 525.98-17.60L525.98-17.60L525.98-17.60Q523.20-17.60 521.47-18.24L521.47-18.24L521.47-18.24Q519.74-18.88 519.55-19.07L519.55-19.07L517.25-6.98L517.25-6.98Q518.78-6.78 521.66-6.78L521.66-6.78L521.66-6.78Q526.59-6.78 530.11-9.86ZM575.36-29.57L575.36-29.57L575.36-29.57Q576.32-31.49 576.32-33.28L576.32-33.28L576.32-33.28Q576.32-35.07 576.13-36.06L576.13-36.06L576.13-36.06Q575.94-37.06 575.49-37.82L575.49-37.82L575.49-37.82Q574.53-39.49 572.61-39.49L572.61-39.49L572.61-39.49Q570.24-39.49 568.32-37.76L568.32-37.76L568.32-37.76Q566.27-35.97 566.27-33.15L566.27-33.15L566.27-33.15Q566.27-31.36 567.52-29.98L567.52-29.98L567.52-29.98Q568.77-28.61 570.69-27.33L570.69-27.33L570.69-27.33Q572.61-26.05 574.78-24.77L574.78-24.77L574.78-24.77Q576.96-23.49 578.88-21.95L578.88-21.95L578.88-21.95Q583.30-18.43 583.30-13.70L583.30-13.70L583.30-13.70Q583.30-10.50 581.60-7.78L581.60-7.78L581.60-7.78Q579.90-5.06 577.09-3.07L577.09-3.07L577.09-3.07Q570.94 1.28 562.82 1.28L562.82 1.28L562.82 1.28Q556.22 1.28 552.83-0.86L552.83-0.86L552.83-0.86Q549.44-3.01 549.44-6.27L549.44-6.27L549.44-6.27Q549.44-12.10 553.98-13.57L553.98-13.57L553.98-13.57Q555.26-14.02 557.22-14.02L557.22-14.02L557.22-14.02Q559.17-14.02 561.41-13.18L561.41-13.18L561.41-13.18Q560.38-10.56 560.38-8.19L560.38-8.19L560.38-8.19Q560.38-3.07 564.03-3.07L564.03-3.07L564.03-3.07Q566.40-3.07 568.35-4.80L568.35-4.80L568.35-4.80Q570.30-6.53 570.30-8.48L570.30-8.48L570.30-8.48Q570.30-10.43 569.06-11.84L569.06-11.84L569.06-11.84Q567.81-13.25 565.95-14.37L565.95-14.37L565.95-14.37Q564.10-15.49 561.95-16.58L561.95-16.58L561.95-16.58Q559.81-17.66 557.95-19.20L557.95-19.20L557.95-19.20Q553.60-22.72 553.60-28.35L553.60-28.35L553.60-28.35Q553.60-32 555.39-34.85L555.39-34.85L555.39-34.85Q557.18-37.70 560.06-39.62L560.06-39.62L560.06-39.62Q565.82-43.52 572.90-43.52L572.90-43.52L572.90-43.52Q579.97-43.52 583.39-41.41L583.39-41.41L583.39-41.41Q586.82-39.30 586.82-35.71L586.82-35.71L586.82-35.71Q586.82-32.58 584.38-30.59L584.38-30.59L584.38-30.59Q582.27-28.93 579.71-28.93L579.71-28.93L579.71-28.93Q577.15-28.93 575.36-29.57ZM612.03-4.80L612.03-4.80L612.03-4.80Q612.03-9.28 613.82-18.24L613.82-18.24L604.35-18.24L600.83 0L587.46 0L595.58-42.24L609.09-42.24L605.38-23.36L614.85-23.36L618.37-42.24L631.87-42.24L631.87-42.24Q630.98-37.50 629.82-32.19L629.82-32.19L627.65-21.76L627.65-21.76Q625.22-9.60 625.22-4.29L625.22-4.29L625.22-4.29Q625.22-2.11 625.92-0.90L625.92-0.90L625.92-0.90Q622.72 1.28 618.98 1.28L618.98 1.28L618.98 1.28Q615.23 1.28 613.63-0.51L613.63-0.51L613.63-0.51Q612.03-2.30 612.03-4.80ZM661.50 1.28L661.50 1.28L661.50 1.28Q653.31 1.28 652.54-10.37L652.54-10.37L641.54-10.37L641.54-10.37Q640.26-7.42 639.36-4.86L639.36-4.86L637.70 0L628.74 0L648.90-42.24L662.66-42.24L665.34-11.14L665.34-11.14Q665.98-4.42 668.54-2.43L668.54-2.43L668.54-2.43Q666.69 1.28 661.50 1.28ZM647.04-23.17L643.52-15.04L652.35-15.04L651.58-31.49L651.58-33.22L647.04-23.17ZM678.85 0L671.81 0L679.49-42.24L693.25-42.24L703.23-13.18L708.54-42.24L715.65-42.18L707.84 0L693.18 0L683.97-27.97L678.85 0Z"
                fill="url(#editing-outline-gradient)"></path>
        </g>
    </g>
    <style>text {
        font-size: 64px;
        font-family: Arial Black;
        dominant-baseline: central;
        text-anchor: middle;
        }
    </style>
</svg>